M48
; DRILL file KiCad 10.0.0 date 2026-05-11T13:45:05
; FORMAT={-:-/ absolute / metric / decimal}
; #@! TF.CreationDate,2026-05-11T13:45:05-03:00
; #@! TF.GenerationSoftware,Kicad,Pcbnew,10.0.0
; #@! TF.FileFunction,NonPlated,1,2,NPTH
FMAT,2
METRIC
; #@! TA.AperFunction,NonPlated,NPTH,ComponentDrill
T1C3.000
; #@! TA.AperFunction,NonPlated,NPTH,ComponentDrill
T2C3.988
%
G90
G05
T1
X131.367Y-130.76
X137.717Y-128.22
X138.511Y-35.51
X138.511Y-54.56
X138.511Y-73.61
X138.511Y-92.66
X144.861Y-32.97
X144.861Y-52.02
X144.861Y-71.07
X144.861Y-90.12
X148.036Y-111.71
X152.798Y-130.76
X154.386Y-109.17
X157.561Y-35.51
X157.561Y-54.56
X157.561Y-73.61
X157.561Y-92.66
X159.148Y-128.22
X163.911Y-32.97
X163.911Y-52.02
X163.911Y-71.07
X163.911Y-90.12
X171.848Y-130.76
X176.611Y-35.51
X176.611Y-54.56
X176.611Y-73.61
X176.611Y-92.66
X176.611Y-111.71
X178.198Y-128.22
X182.961Y-32.97
X182.961Y-52.02
X182.961Y-71.07
X182.961Y-90.12
X182.961Y-109.17
X193.279Y-130.76
X195.661Y-35.51
X195.661Y-54.56
X195.661Y-73.61
X195.661Y-92.66
X195.661Y-111.71
X199.629Y-128.22
X202.011Y-32.97
X202.011Y-52.02
X202.011Y-71.07
X202.011Y-90.12
X202.011Y-109.17
T2
X135.177Y-133.3
X142.321Y-38.05
X142.321Y-57.1
X142.321Y-76.15
X142.321Y-95.2
X151.846Y-114.25
X156.608Y-133.3
X161.371Y-38.05
X161.371Y-57.1
X161.371Y-76.15
X161.371Y-95.2
X175.658Y-133.3
X180.421Y-38.05
X180.421Y-57.1
X180.421Y-76.15
X180.421Y-95.2
X180.421Y-114.25
X197.089Y-133.3
X199.471Y-38.05
X199.471Y-57.1
X199.471Y-76.15
X199.471Y-95.2
X199.471Y-114.25
M30
