M48
; DRILL file KiCad 10.0.0 date 2026-05-11T13:45:05
; FORMAT={-:-/ absolute / metric / decimal}
; #@! TF.CreationDate,2026-05-11T13:45:05-03:00
; #@! TF.GenerationSoftware,Kicad,Pcbnew,10.0.0
; #@! TF.FileFunction,Plated,1,2,PTH
FMAT,2
METRIC
; #@! TA.AperFunction,Plated,PTH,ViaDrill
T1C0.600
; #@! TA.AperFunction,Plated,PTH,ComponentDrill
T2C0.800
; #@! TA.AperFunction,Plated,PTH,ComponentDrill
T3C1.000
%
G90
G05
T1
X123.05Y-150.25
X125.15Y-103.0
X140.9Y-146.9
X166.4Y-155.65
X171.65Y-146.75
X174.45Y-156.5
X178.101Y-146.399
X180.1Y-156.1
X185.752Y-146.3
X190.352Y-146.45
X209.9Y-132.4
X211.2Y-110.9
T2
X125.398Y-76.277
X125.398Y-78.277
X125.398Y-80.277
X125.398Y-82.277
X125.398Y-84.277
X127.398Y-76.277
X127.398Y-78.277
X127.398Y-80.277
X127.398Y-82.277
X127.398Y-84.277
X130.057Y-142.3
X137.201Y-47.05
X137.201Y-66.1
X137.201Y-85.15
X137.201Y-104.2
X137.677Y-142.3
X144.821Y-47.05
X144.821Y-66.1
X144.821Y-85.15
X144.821Y-104.2
X146.726Y-123.25
X151.488Y-142.3
X154.346Y-123.25
X156.251Y-47.05
X156.251Y-66.1
X156.251Y-85.15
X156.251Y-104.2
X159.108Y-142.3
X163.871Y-47.05
X163.871Y-66.1
X163.871Y-85.15
X163.871Y-104.2
X170.538Y-142.3
X175.301Y-47.05
X175.301Y-66.1
X175.301Y-85.15
X175.301Y-104.2
X175.301Y-123.25
X178.158Y-142.3
X182.921Y-47.05
X182.921Y-66.1
X182.921Y-85.15
X182.921Y-104.2
X182.921Y-123.25
X191.969Y-142.3
X194.351Y-47.05
X194.351Y-66.1
X194.351Y-85.15
X194.351Y-104.2
X194.351Y-123.25
X199.589Y-142.3
X201.971Y-47.05
X201.971Y-66.1
X201.971Y-85.15
X201.971Y-104.2
X201.971Y-123.25
T3
X151.302Y-149.85
X151.302Y-152.39
X153.842Y-149.85
X153.842Y-152.39
X156.382Y-149.85
X156.382Y-152.39
X158.922Y-149.85
X158.922Y-152.39
X161.462Y-149.85
X161.462Y-152.39
X164.002Y-149.85
X164.002Y-152.39
X166.542Y-149.85
X166.542Y-152.39
X169.082Y-149.85
X169.082Y-152.39
X171.622Y-149.85
X171.622Y-152.39
X174.162Y-149.85
X174.162Y-152.39
X176.702Y-149.85
X176.702Y-152.39
X179.242Y-149.85
X179.242Y-152.39
X181.782Y-149.85
X181.782Y-152.39
X184.322Y-149.85
X184.322Y-152.39
X186.862Y-149.85
X186.862Y-152.39
X189.402Y-149.85
X189.402Y-152.39
X191.942Y-149.85
X191.942Y-152.39
X194.482Y-149.85
X194.482Y-152.39
X197.022Y-149.85
X197.022Y-152.39
X199.562Y-149.85
X199.562Y-152.39
M30
