%TF.GenerationSoftware,KiCad,Pcbnew,10.0.0*%
%TF.CreationDate,2026-05-12T01:23:41-03:00*%
%TF.ProjectId,Placa,506c6163-612e-46b6-9963-61645f706362,rev?*%
%TF.SameCoordinates,Original*%
%TF.FileFunction,Copper,L2,Bot*%
%TF.FilePolarity,Positive*%
%FSLAX46Y46*%
G04 Gerber Fmt 4.6, Leading zero omitted, Abs format (unit mm)*
G04 Created by KiCad (PCBNEW 10.0.0) date 2026-05-12 01:23:41*
%MOMM*%
%LPD*%
G01*
G04 APERTURE LIST*
G04 Aperture macros list*
%AMRoundRect*
0 Rectangle with rounded corners*
0 $1 Rounding radius*
0 $2 $3 $4 $5 $6 $7 $8 $9 X,Y pos of 4 corners*
0 Add a 4 corners polygon primitive as box body*
4,1,4,$2,$3,$4,$5,$6,$7,$8,$9,$2,$3,0*
0 Add four circle primitives for the rounded corners*
1,1,$1+$1,$2,$3*
1,1,$1+$1,$4,$5*
1,1,$1+$1,$6,$7*
1,1,$1+$1,$8,$9*
0 Add four rect primitives between the rounded corners*
20,1,$1+$1,$2,$3,$4,$5,0*
20,1,$1+$1,$4,$5,$6,$7,0*
20,1,$1+$1,$6,$7,$8,$9,0*
20,1,$1+$1,$8,$9,$2,$3,0*%
G04 Aperture macros list end*
%TA.AperFunction,ComponentPad*%
%ADD10R,1.700000X1.700000*%
%TD*%
%TA.AperFunction,ComponentPad*%
%ADD11C,1.700000*%
%TD*%
%TA.AperFunction,ComponentPad*%
%ADD12C,2.000000*%
%TD*%
%TA.AperFunction,ComponentPad*%
%ADD13RoundRect,0.312500X0.687500X0.687500X-0.687500X0.687500X-0.687500X-0.687500X0.687500X-0.687500X0*%
%TD*%
%TA.AperFunction,ComponentPad*%
%ADD14C,3.000000*%
%TD*%
%TA.AperFunction,ComponentPad*%
%ADD15C,3.987800*%
%TD*%
%TA.AperFunction,SMDPad,CuDef*%
%ADD16R,2.550000X2.500000*%
%TD*%
%TA.AperFunction,ComponentPad*%
%ADD17R,2.000000X2.000000*%
%TD*%
%TA.AperFunction,ViaPad*%
%ADD18C,1.600000*%
%TD*%
%TA.AperFunction,Conductor*%
%ADD19C,1.000000*%
%TD*%
G04 APERTURE END LIST*
D10*
%TO.P,J2,1,Pin_1_1*%
%TO.N,unconnected-(J2-Pin_1-Pad1)*%
X151302000Y-149850000D03*
D11*
%TO.P,J2,2,Pin_2_2*%
%TO.N,unconnected-(J2-Pin_2-Pad2)*%
X151302000Y-152390000D03*
%TO.P,J2,3,Pin_3_3*%
%TO.N,unconnected-(J2-Pin_3-Pad3)*%
X153842000Y-149850000D03*
%TO.P,J2,4,Pin_4_4*%
%TO.N,unconnected-(J2-Pin_4-Pad4)*%
X153842000Y-152390000D03*
%TO.P,J2,5,Pin_5_5*%
%TO.N,unconnected-(J2-Pin_5-Pad5)*%
X156382000Y-149850000D03*
%TO.P,J2,6,Pin_6_6*%
%TO.N,unconnected-(J2-Pin_6-Pad6)*%
X156382000Y-152390000D03*
%TO.P,J2,7,Pin_7_7*%
%TO.N,unconnected-(J2-Pin_7-Pad7)*%
X158922000Y-149850000D03*
%TO.P,J2,8,Pin_8_8*%
%TO.N,unconnected-(J2-Pin_8-Pad8)*%
X158922000Y-152390000D03*
%TO.P,J2,9,Pin_9_9*%
%TO.N,unconnected-(J2-Pin_9-Pad9)*%
X161462000Y-149850000D03*
%TO.P,J2,10,Pin_10_10*%
%TO.N,unconnected-(J2-Pin_10-Pad10)*%
X161462000Y-152390000D03*
%TO.P,J2,11,Pin_11_11*%
%TO.N,unconnected-(J2-Pin_11-Pad11)*%
X164002000Y-149850000D03*
D12*
%TO.P,J2,12,Pin_12_12*%
%TO.N,Col0*%
X164002000Y-152390000D03*
D11*
%TO.P,J2,13,Pin_13_13*%
%TO.N,unconnected-(J2-Pin_13-Pad13)*%
X166542000Y-149850000D03*
%TO.P,J2,14,Pin_14_14*%
%TO.N,unconnected-(J2-Pin_14-Pad14)*%
X166542000Y-152390000D03*
D12*
%TO.P,J2,15,Pin_15_15*%
%TO.N,Col2*%
X169082000Y-149850000D03*
%TO.P,J2,16,Pin_16_16*%
%TO.N,Col1*%
X169082000Y-152390000D03*
D11*
%TO.P,J2,17,Pin_17_17*%
%TO.N,unconnected-(J2-Pin_17-Pad17)*%
X171622000Y-149850000D03*
D12*
%TO.P,J2,18,Pin_18_18*%
%TO.N,Row3*%
X171622000Y-152390000D03*
%TO.P,J2,19,Pin_19_19*%
%TO.N,Col3*%
X174162000Y-149850000D03*
D11*
%TO.P,J2,20,Pin_20_20*%
%TO.N,unconnected-(J2-Pin_20-Pad20)*%
X174162000Y-152390000D03*
%TO.P,J2,21,Pin_21_21*%
%TO.N,unconnected-(J2-Pin_21-Pad21)*%
X176702000Y-149850000D03*
%TO.P,J2,22,Pin_22_22*%
%TO.N,unconnected-(J2-Pin_22-Pad22)*%
X176702000Y-152390000D03*
D12*
%TO.P,J2,23,Pin_23_23*%
%TO.N,Col4*%
X179242000Y-149850000D03*
%TO.P,J2,24,Pin_24_24*%
%TO.N,Row4*%
X179242000Y-152390000D03*
D11*
%TO.P,J2,25,Pin_25_25*%
%TO.N,unconnected-(J2-Pin_25-Pad25)*%
X181782000Y-149850000D03*
D12*
%TO.P,J2,26,Pin_26_26*%
%TO.N,Row0*%
X181782000Y-152390000D03*
D11*
%TO.P,J2,27,Pin_27_27*%
%TO.N,unconnected-(J2-Pin_27-Pad27)*%
X184322000Y-149850000D03*
%TO.P,J2,28,Pin_28_28*%
%TO.N,unconnected-(J2-Pin_28-Pad28)*%
X184322000Y-152390000D03*
D12*
%TO.P,J2,29,Pin_29_29*%
%TO.N,Col5*%
X186862000Y-149850000D03*
D11*
%TO.P,J2,30,Pin_30_30*%
%TO.N,unconnected-(J2-Pin_30-Pad30)*%
X186862000Y-152390000D03*
D12*
%TO.P,J2,31,Pin_31_31*%
%TO.N,Col6*%
X189402000Y-149850000D03*
%TO.P,J2,32,Pin_32_32*%
%TO.N,Row1*%
X189402000Y-152390000D03*
%TO.P,J2,33,Pin_33_33*%
%TO.N,Row5*%
X191942000Y-149850000D03*
D11*
%TO.P,J2,34,Pin_34_34*%
%TO.N,unconnected-(J2-Pin_34-Pad34)*%
X191942000Y-152390000D03*
%TO.P,J2,35,Pin_35_35*%
%TO.N,unconnected-(J2-Pin_35-Pad35)*%
X194482000Y-149850000D03*
D12*
%TO.P,J2,36,Pin_36_36*%
%TO.N,Row2*%
X194482000Y-152390000D03*
D11*
%TO.P,J2,37,Pin_37_37*%
%TO.N,unconnected-(J2-Pin_37-Pad37)*%
X197022000Y-149850000D03*
%TO.P,J2,38,Pin_38_38*%
%TO.N,unconnected-(J2-Pin_38-Pad38)*%
X197022000Y-152390000D03*
%TO.P,J2,39,Pin_39_39*%
%TO.N,unconnected-(J2-Pin_39-Pad39)*%
X199562000Y-149850000D03*
%TO.P,J2,40,Pin_40_40*%
%TO.N,unconnected-(J2-Pin_40-Pad40)*%
X199562000Y-152390000D03*
%TD*%
D13*
%TO.P,D13,1,K_1*%
%TO.N,Row1*%
X201970750Y-66100000D03*
D12*
%TO.P,D13,2,A_2*%
%TO.N,Net-(D13-A)*%
X194350750Y-66100000D03*
%TD*%
D13*
%TO.P,D23,1,K_1*%
%TO.N,Row3*%
X163870750Y-104200000D03*
D12*
%TO.P,D23,2,A_2*%
%TO.N,Net-(D23-A)*%
X156250750Y-104200000D03*
%TD*%
D13*
%TO.P,D31,1,K_1*%
%TO.N,Row4*%
X201970750Y-123250000D03*
D12*
%TO.P,D31,2,A_2*%
%TO.N,Net-(D31-A)*%
X194350750Y-123250000D03*
%TD*%
D14*
%TO.P,SW12,*%
%TO.N,*%
X176610750Y-54560000D03*
D15*
X180420750Y-57100000D03*
D14*
X182960750Y-52020000D03*
D16*
%TO.P,SW12,1,1_1*%
%TO.N,Net-(D12-A)*%
X172860750Y-54560000D03*
%TO.P,SW12,2,2_2*%
%TO.N,Col5*%
X186710750Y-52020000D03*
%TD*%
D14*
%TO.P,SW37,*%
%TO.N,*%
X171848250Y-130760000D03*
D15*
X175658250Y-133300000D03*
D14*
X178198250Y-128220000D03*
D16*
%TO.P,SW37,1,1_1*%
%TO.N,Net-(D37-A)*%
X168098250Y-130760000D03*
%TO.P,SW37,2,2_2*%
%TO.N,Col5*%
X181948250Y-128220000D03*
%TD*%
D14*
%TO.P,SW35,*%
%TO.N,*%
X131367000Y-130760000D03*
D15*
X135177000Y-133300000D03*
D14*
X137717000Y-128220000D03*
D16*
%TO.P,SW35,1,1_1*%
%TO.N,Net-(D35-A)*%
X127617000Y-130760000D03*
%TO.P,SW35,2,2_2*%
%TO.N,Col3*%
X141467000Y-128220000D03*
%TD*%
D14*
%TO.P,SW11,*%
%TO.N,*%
X157560750Y-54560000D03*
D15*
X161370750Y-57100000D03*
D14*
X163910750Y-52020000D03*
D16*
%TO.P,SW11,1,1_1*%
%TO.N,Net-(D11-A)*%
X153810750Y-54560000D03*
%TO.P,SW11,2,2_2*%
%TO.N,Col4*%
X167660750Y-52020000D03*
%TD*%
D14*
%TO.P,SW17,*%
%TO.N,*%
X157560750Y-73610000D03*
D15*
X161370750Y-76150000D03*
D14*
X163910750Y-71070000D03*
D16*
%TO.P,SW17,1,1_1*%
%TO.N,Net-(D17-A)*%
X153810750Y-73610000D03*
%TO.P,SW17,2,2_2*%
%TO.N,Col4*%
X167660750Y-71070000D03*
%TD*%
D13*
%TO.P,D4,1,K_1*%
%TO.N,Row0*%
X144820750Y-47050000D03*
D12*
%TO.P,D4,2,A_2*%
%TO.N,Net-(D4-A)*%
X137200750Y-47050000D03*
%TD*%
D14*
%TO.P,SW7,*%
%TO.N,*%
X195660750Y-35510000D03*
D15*
X199470750Y-38050000D03*
D14*
X202010750Y-32970000D03*
D16*
%TO.P,SW7,1,1_1*%
%TO.N,Net-(D7-A)*%
X191910750Y-35510000D03*
%TO.P,SW7,2,2_2*%
%TO.N,Col6*%
X205760750Y-32970000D03*
%TD*%
D13*
%TO.P,D11,1,K_1*%
%TO.N,Row1*%
X163870750Y-66100000D03*
D12*
%TO.P,D11,2,A_2*%
%TO.N,Net-(D11-A)*%
X156250750Y-66100000D03*
%TD*%
D13*
%TO.P,D25,1,K_1*%
%TO.N,Row3*%
X201970750Y-104200000D03*
D12*
%TO.P,D25,2,A_2*%
%TO.N,Net-(D25-A)*%
X194350750Y-104200000D03*
%TD*%
D13*
%TO.P,D6,1,K_1*%
%TO.N,Row0*%
X182920750Y-47050000D03*
D12*
%TO.P,D6,2,A_2*%
%TO.N,Net-(D6-A)*%
X175300750Y-47050000D03*
%TD*%
D13*
%TO.P,D35,1,K_1*%
%TO.N,Row5*%
X137677000Y-142300000D03*
D12*
%TO.P,D35,2,A_2*%
%TO.N,Net-(D35-A)*%
X130057000Y-142300000D03*
%TD*%
D14*
%TO.P,SW36,*%
%TO.N,*%
X152798250Y-130760000D03*
D15*
X156608250Y-133300000D03*
D14*
X159148250Y-128220000D03*
D16*
%TO.P,SW36,1,1_1*%
%TO.N,Net-(D36-A)*%
X149048250Y-130760000D03*
%TO.P,SW36,2,2_2*%
%TO.N,Col4*%
X162898250Y-128220000D03*
%TD*%
D13*
%TO.P,D29,1,K_1*%
%TO.N,Row4*%
X154345750Y-123250000D03*
D12*
%TO.P,D29,2,A_2*%
%TO.N,Net-(D29-A)*%
X146725750Y-123250000D03*
%TD*%
D13*
%TO.P,D24,1,K_1*%
%TO.N,Row3*%
X182920750Y-104200000D03*
D12*
%TO.P,D24,2,A_2*%
%TO.N,Net-(D24-A)*%
X175300750Y-104200000D03*
%TD*%
D14*
%TO.P,SW18,*%
%TO.N,*%
X176610750Y-73610000D03*
D15*
X180420750Y-76150000D03*
D14*
X182960750Y-71070000D03*
D16*
%TO.P,SW18,1,1_1*%
%TO.N,Net-(D18-A)*%
X172860750Y-73610000D03*
%TO.P,SW18,2,2_2*%
%TO.N,Col5*%
X186710750Y-71070000D03*
%TD*%
D14*
%TO.P,SW5,*%
%TO.N,*%
X157560750Y-35510000D03*
D15*
X161370750Y-38050000D03*
D14*
X163910750Y-32970000D03*
D16*
%TO.P,SW5,1,1_1*%
%TO.N,Net-(D5-A)*%
X153810750Y-35510000D03*
%TO.P,SW5,2,2_2*%
%TO.N,Col4*%
X167660750Y-32970000D03*
%TD*%
D13*
%TO.P,D7,1,K_1*%
%TO.N,Row0*%
X201970750Y-47050000D03*
D12*
%TO.P,D7,2,A_2*%
%TO.N,Net-(D7-A)*%
X194350750Y-47050000D03*
%TD*%
D14*
%TO.P,SW23,*%
%TO.N,*%
X157560750Y-92660000D03*
D15*
X161370750Y-95200000D03*
D14*
X163910750Y-90120000D03*
D16*
%TO.P,SW23,1,1_1*%
%TO.N,Net-(D23-A)*%
X153810750Y-92660000D03*
%TO.P,SW23,2,2_2*%
%TO.N,Col4*%
X167660750Y-90120000D03*
%TD*%
D14*
%TO.P,SW30,*%
%TO.N,*%
X176610750Y-111710000D03*
D15*
X180420750Y-114250000D03*
D14*
X182960750Y-109170000D03*
D16*
%TO.P,SW30,1,1_1*%
%TO.N,Net-(D30-A)*%
X172860750Y-111710000D03*
%TO.P,SW30,2,2_2*%
%TO.N,Col5*%
X186710750Y-109170000D03*
%TD*%
D13*
%TO.P,D38,1,K_1*%
%TO.N,Row5*%
X199589500Y-142300000D03*
D12*
%TO.P,D38,2,A_2*%
%TO.N,Net-(D38-A)*%
X191969500Y-142300000D03*
%TD*%
D13*
%TO.P,D16,1,K_1*%
%TO.N,Row2*%
X144820750Y-85150000D03*
D12*
%TO.P,D16,2,A_2*%
%TO.N,Net-(D16-A)*%
X137200750Y-85150000D03*
%TD*%
D14*
%TO.P,SW10,*%
%TO.N,*%
X138510750Y-54560000D03*
D15*
X142320750Y-57100000D03*
D14*
X144860750Y-52020000D03*
D16*
%TO.P,SW10,1,1_1*%
%TO.N,Net-(D10-A)*%
X134760750Y-54560000D03*
%TO.P,SW10,2,2_2*%
%TO.N,Col3*%
X148610750Y-52020000D03*
%TD*%
D14*
%TO.P,SW38,*%
%TO.N,*%
X193279500Y-130760000D03*
D15*
X197089500Y-133300000D03*
D14*
X199629500Y-128220000D03*
D16*
%TO.P,SW38,1,1_1*%
%TO.N,Net-(D38-A)*%
X189529500Y-130760000D03*
%TO.P,SW38,2,2_2*%
%TO.N,Col6*%
X203379500Y-128220000D03*
%TD*%
D14*
%TO.P,SW13,*%
%TO.N,*%
X195660750Y-54560000D03*
D15*
X199470750Y-57100000D03*
D14*
X202010750Y-52020000D03*
D16*
%TO.P,SW13,1,1_1*%
%TO.N,Net-(D13-A)*%
X191910750Y-54560000D03*
%TO.P,SW13,2,2_2*%
%TO.N,Col6*%
X205760750Y-52020000D03*
%TD*%
D13*
%TO.P,D19,1,K_1*%
%TO.N,Row2*%
X201970750Y-85150000D03*
D12*
%TO.P,D19,2,A_2*%
%TO.N,Net-(D19-A)*%
X194350750Y-85150000D03*
%TD*%
D13*
%TO.P,D12,1,K_1*%
%TO.N,Row1*%
X182920750Y-66100000D03*
D12*
%TO.P,D12,2,A_2*%
%TO.N,Net-(D12-A)*%
X175300750Y-66100000D03*
%TD*%
D13*
%TO.P,D18,1,K_1*%
%TO.N,Row2*%
X182920750Y-85150000D03*
D12*
%TO.P,D18,2,A_2*%
%TO.N,Net-(D18-A)*%
X175300750Y-85150000D03*
%TD*%
D13*
%TO.P,D5,1,K_1*%
%TO.N,Row0*%
X163870750Y-47050000D03*
D12*
%TO.P,D5,2,A_2*%
%TO.N,Net-(D5-A)*%
X156250750Y-47050000D03*
%TD*%
D14*
%TO.P,SW19,*%
%TO.N,*%
X195660750Y-73610000D03*
D15*
X199470750Y-76150000D03*
D14*
X202010750Y-71070000D03*
D16*
%TO.P,SW19,1,1_1*%
%TO.N,Net-(D19-A)*%
X191910750Y-73610000D03*
%TO.P,SW19,2,2_2*%
%TO.N,Col6*%
X205760750Y-71070000D03*
%TD*%
D14*
%TO.P,SW22,*%
%TO.N,*%
X138510750Y-92660000D03*
D15*
X142320750Y-95200000D03*
D14*
X144860750Y-90120000D03*
D16*
%TO.P,SW22,1,1_1*%
%TO.N,Net-(D22-A)*%
X134760750Y-92660000D03*
%TO.P,SW22,2,2_2*%
%TO.N,Col3*%
X148610750Y-90120000D03*
%TD*%
D14*
%TO.P,SW16,*%
%TO.N,*%
X138510750Y-73610000D03*
D15*
X142320750Y-76150000D03*
D14*
X144860750Y-71070000D03*
D16*
%TO.P,SW16,1,1_1*%
%TO.N,Net-(D16-A)*%
X134760750Y-73610000D03*
%TO.P,SW16,2,2_2*%
%TO.N,Col3*%
X148610750Y-71070000D03*
%TD*%
D13*
%TO.P,D22,1,K_1*%
%TO.N,Row3*%
X144820750Y-104200000D03*
D12*
%TO.P,D22,2,A_2*%
%TO.N,Net-(D22-A)*%
X137200750Y-104200000D03*
%TD*%
D13*
%TO.P,D37,1,K_1*%
%TO.N,Row5*%
X178158250Y-142300000D03*
D12*
%TO.P,D37,2,A_2*%
%TO.N,Net-(D37-A)*%
X170538250Y-142300000D03*
%TD*%
D14*
%TO.P,SW4,*%
%TO.N,*%
X138510750Y-35510000D03*
D15*
X142320750Y-38050000D03*
D14*
X144860750Y-32970000D03*
D16*
%TO.P,SW4,1,1_1*%
%TO.N,Net-(D4-A)*%
X134760750Y-35510000D03*
%TO.P,SW4,2,2_2*%
%TO.N,Col3*%
X148610750Y-32970000D03*
%TD*%
D14*
%TO.P,SW6,*%
%TO.N,*%
X176610750Y-35510000D03*
D15*
X180420750Y-38050000D03*
D14*
X182960750Y-32970000D03*
D16*
%TO.P,SW6,1,1_1*%
%TO.N,Net-(D6-A)*%
X172860750Y-35510000D03*
%TO.P,SW6,2,2_2*%
%TO.N,Col5*%
X186710750Y-32970000D03*
%TD*%
D14*
%TO.P,SW24,*%
%TO.N,*%
X176610750Y-92660000D03*
D15*
X180420750Y-95200000D03*
D14*
X182960750Y-90120000D03*
D16*
%TO.P,SW24,1,1_1*%
%TO.N,Net-(D24-A)*%
X172860750Y-92660000D03*
%TO.P,SW24,2,2_2*%
%TO.N,Col5*%
X186710750Y-90120000D03*
%TD*%
D13*
%TO.P,D30,1,K_1*%
%TO.N,Row4*%
X182920750Y-123250000D03*
D12*
%TO.P,D30,2,A_2*%
%TO.N,Net-(D30-A)*%
X175300750Y-123250000D03*
%TD*%
D14*
%TO.P,SW29,*%
%TO.N,*%
X148035750Y-111710000D03*
D15*
X151845750Y-114250000D03*
D14*
X154385750Y-109170000D03*
D16*
%TO.P,SW29,1,1_1*%
%TO.N,Net-(D29-A)*%
X144285750Y-111710000D03*
%TO.P,SW29,2,2_2*%
%TO.N,Col3*%
X158135750Y-109170000D03*
%TD*%
D14*
%TO.P,SW31,*%
%TO.N,*%
X195660750Y-111710000D03*
D15*
X199470750Y-114250000D03*
D14*
X202010750Y-109170000D03*
D16*
%TO.P,SW31,1,1_1*%
%TO.N,Net-(D31-A)*%
X191910750Y-111710000D03*
%TO.P,SW31,2,2_2*%
%TO.N,Col6*%
X205760750Y-109170000D03*
%TD*%
D13*
%TO.P,D36,1,K_1*%
%TO.N,Row5*%
X159108250Y-142300000D03*
D12*
%TO.P,D36,2,A_2*%
%TO.N,Net-(D36-A)*%
X151488250Y-142300000D03*
%TD*%
D13*
%TO.P,D10,1,K_1*%
%TO.N,Row1*%
X144820750Y-66100000D03*
D12*
%TO.P,D10,2,A_2*%
%TO.N,Net-(D10-A)*%
X137200750Y-66100000D03*
%TD*%
D17*
%TO.P,J4,1,Pin_1_1*%
%TO.N,Row0*%
X125398000Y-76277000D03*
D12*
%TO.P,J4,2,Pin_2_2*%
%TO.N,Row1*%
X127938000Y-76277000D03*
%TO.P,J4,3,Pin_3_3*%
%TO.N,Col0*%
X125398000Y-78817000D03*
%TO.P,J4,4,Pin_4_4*%
%TO.N,Row2*%
X127938000Y-78817000D03*
%TO.P,J4,5,Pin_5_5*%
%TO.N,Col1*%
X125398000Y-81357000D03*
%TO.P,J4,6,Pin_6_6*%
%TO.N,Row3*%
X127938000Y-81357000D03*
%TO.P,J4,7,Pin_7_7*%
%TO.N,Row5*%
X125398000Y-83897000D03*
%TO.P,J4,8,Pin_8_8*%
%TO.N,unconnected-(J4-Pin_8-Pad8)*%
X127938000Y-83897000D03*
%TO.P,J4,9,Pin_9_9*%
%TO.N,Col2*%
X125398000Y-86437000D03*
%TO.P,J4,10,Pin_10_10*%
%TO.N,Row4*%
X127938000Y-86437000D03*
%TD*%
D13*
%TO.P,D17,1,K_1*%
%TO.N,Row2*%
X163870750Y-85150000D03*
D12*
%TO.P,D17,2,A_2*%
%TO.N,Net-(D17-A)*%
X156250750Y-85150000D03*
%TD*%
D14*
%TO.P,SW25,*%
%TO.N,*%
X195660750Y-92660000D03*
D15*
X199470750Y-95200000D03*
D14*
X202010750Y-90120000D03*
D16*
%TO.P,SW25,1,1_1*%
%TO.N,Net-(D25-A)*%
X191910750Y-92660000D03*
%TO.P,SW25,2,2_2*%
%TO.N,Col6*%
X205760750Y-90120000D03*
%TD*%
D18*
%TO.N,Col6*%
X190352000Y-146450000D03*
%TO.N,Row4*%
X209900000Y-132400000D03*
%TO.N,Col3*%
X171650000Y-146750000D03*
%TO.N,Row4*%
X180100000Y-156100000D03*
%TO.N,Col4*%
X178101000Y-146399000D03*
%TO.N,Row3*%
X211200000Y-110900000D03*
%TO.N,Col1*%
X123050000Y-150250000D03*
%TO.N,Col5*%
X185752000Y-146300000D03*
%TO.N,Row3*%
X174450000Y-156500000D03*
%TO.N,Col1*%
X166400000Y-155650000D03*
%TO.N,Col2*%
X140900000Y-146900000D03*
X125150000Y-103000000D03*
%TD*%
%TO.N,Net-(D38-A)*%
D19*
X191969500Y-142300000D02*
X189452000Y-139782500D01*
%TO.N,Net-(D12-A)*%
X175300750Y-66100000D02*
X172852000Y-63651250D01*
%TO.N,Net-(D37-A)*%
X168252000Y-130913750D02*
X168098250Y-130760000D01*
%TO.N,Col3*%
X148610750Y-93908750D02*
X151052000Y-96350000D01*
X148352000Y-144550000D02*
X144552000Y-140750000D01*
%TO.N,Net-(D10-A)*%
X137200750Y-66100000D02*
X134752000Y-63651250D01*
%TO.N,Net-(D37-A)*%
X168252000Y-140013750D02*
X168252000Y-130913750D01*
%TO.N,Net-(D10-A)*%
X134752000Y-54568750D02*
X134760750Y-54560000D01*
X134752000Y-63651250D02*
X134752000Y-54568750D01*
%TO.N,Net-(D19-A)*%
X194350750Y-85150000D02*
X191652000Y-82451250D01*
%TO.N,Net-(D16-A)*%
X134752000Y-82701250D02*
X134752000Y-73618750D01*
X134752000Y-73618750D02*
X134760750Y-73610000D01*
%TO.N,Net-(D31-A)*%
X194350750Y-123250000D02*
X191852000Y-120751250D01*
%TO.N,Net-(D12-A)*%
X172852000Y-63651250D02*
X172852000Y-54568750D01*
%TO.N,Net-(D37-A)*%
X170538250Y-142300000D02*
X168252000Y-140013750D01*
%TO.N,Col3*%
X151052000Y-96350000D02*
X151052000Y-76850000D01*
X151052000Y-55050000D02*
X151052000Y-38250000D01*
%TO.N,Net-(D16-A)*%
X137200750Y-85150000D02*
X134752000Y-82701250D01*
%TO.N,Net-(D30-A)*%
X175300750Y-123250000D02*
X172852000Y-120801250D01*
X172852000Y-111718750D02*
X172860750Y-111710000D01*
X172852000Y-120801250D02*
X172852000Y-111718750D01*
%TO.N,Col3*%
X148610750Y-90120000D02*
X148610750Y-93908750D01*
X151052000Y-76850000D02*
X151052000Y-55050000D01*
%TO.N,Net-(D31-A)*%
X191852000Y-111768750D02*
X191910750Y-111710000D01*
%TO.N,Net-(D12-A)*%
X172852000Y-54568750D02*
X172860750Y-54560000D01*
%TO.N,Net-(D22-A)*%
X134752000Y-101751250D02*
X134752000Y-92668750D01*
%TO.N,Net-(D25-A)*%
X191952000Y-92701250D02*
X191910750Y-92660000D01*
%TO.N,Col3*%
X166652000Y-146750000D02*
X164452000Y-144550000D01*
X144552000Y-126948000D02*
X146000000Y-125500000D01*
%TO.N,Net-(D13-A)*%
X194350750Y-66100000D02*
X191852000Y-63601250D01*
X191852000Y-54618750D02*
X191910750Y-54560000D01*
%TO.N,Net-(D19-A)*%
X191652000Y-82451250D02*
X191652000Y-73868750D01*
%TO.N,Net-(D22-A)*%
X134752000Y-92668750D02*
X134760750Y-92660000D01*
%TO.N,Col3*%
X159552000Y-125450000D02*
X161152000Y-123850000D01*
%TO.N,Net-(D19-A)*%
X191652000Y-73868750D02*
X191910750Y-73610000D01*
%TO.N,Net-(D38-A)*%
X189452000Y-139782500D02*
X189452000Y-130837500D01*
%TO.N,Net-(D31-A)*%
X191852000Y-120751250D02*
X191852000Y-111768750D01*
%TO.N,Col3*%
X144552000Y-131150000D02*
X144552000Y-126948000D01*
X148610750Y-35808750D02*
X148610750Y-32970000D01*
X158135750Y-109170000D02*
X158135750Y-112283750D01*
X149102000Y-125500000D02*
X149152000Y-125450000D01*
X151052000Y-104650000D02*
X151052000Y-96350000D01*
X141467000Y-132515000D02*
X144552000Y-135600000D01*
X141467000Y-128220000D02*
X141467000Y-132515000D01*
%TO.N,Net-(D38-A)*%
X189452000Y-130837500D02*
X189529500Y-130760000D01*
%TO.N,Net-(D25-A)*%
X194350750Y-104200000D02*
X191952000Y-101801250D01*
%TO.N,Col3*%
X148610750Y-71070000D02*
X148610750Y-74408750D01*
X144552000Y-135600000D02*
X144552000Y-131150000D01*
%TO.N,Net-(D25-A)*%
X191952000Y-101801250D02*
X191952000Y-92701250D01*
%TO.N,Col3*%
X161152000Y-107050000D02*
X160152000Y-106050000D01*
X149152000Y-125450000D02*
X159552000Y-125450000D01*
%TO.N,Net-(D13-A)*%
X191852000Y-63601250D02*
X191852000Y-54618750D01*
%TO.N,Net-(D22-A)*%
X137200750Y-104200000D02*
X134752000Y-101751250D01*
%TO.N,Col3*%
X148610750Y-52020000D02*
X148610750Y-54208750D01*
X146000000Y-125500000D02*
X149102000Y-125500000D01*
X161152000Y-111350000D02*
X161152000Y-107050000D01*
X148610750Y-54208750D02*
X151052000Y-56650000D01*
%TO.N,Net-(D6-A)*%
X175300750Y-47050000D02*
X172852000Y-44601250D01*
%TO.N,Row4*%
X201000000Y-156100000D02*
X209900000Y-147200000D01*
X180100000Y-156100000D02*
X201000000Y-156100000D01*
%TO.N,Col3*%
X161152000Y-123850000D02*
X161152000Y-115300000D01*
X144552000Y-140750000D02*
X144552000Y-135600000D01*
X144552000Y-131150000D02*
X144552000Y-129950000D01*
X164452000Y-144550000D02*
X148352000Y-144550000D01*
%TO.N,Net-(D17-A)*%
X156250750Y-85150000D02*
X153852000Y-82751250D01*
%TO.N,Col3*%
X158135750Y-112283750D02*
X161152000Y-115300000D01*
%TO.N,Row4*%
X209900000Y-147200000D02*
X209900000Y-132400000D01*
%TO.N,Col3*%
X151052000Y-38250000D02*
X148610750Y-35808750D01*
X148610750Y-74408750D02*
X151052000Y-76850000D01*
X171650000Y-146750000D02*
X166652000Y-146750000D01*
%TO.N,Net-(D17-A)*%
X153852000Y-82751250D02*
X153852000Y-73651250D01*
%TO.N,Net-(D29-A)*%
X146725750Y-123250000D02*
X144252000Y-120776250D01*
%TO.N,Col3*%
X161152000Y-111350000D02*
X161152000Y-110350000D01*
%TO.N,Net-(D29-A)*%
X144252000Y-120776250D02*
X144252000Y-111743750D01*
%TO.N,Net-(D6-A)*%
X172852000Y-35518750D02*
X172860750Y-35510000D01*
%TO.N,Col3*%
X152452000Y-106050000D02*
X151052000Y-104650000D01*
%TO.N,Net-(D29-A)*%
X144252000Y-111743750D02*
X144285750Y-111710000D01*
%TO.N,Col3*%
X161152000Y-115300000D02*
X161152000Y-111350000D01*
X160152000Y-106050000D02*
X152452000Y-106050000D01*
%TO.N,Net-(D6-A)*%
X172852000Y-44601250D02*
X172852000Y-35518750D01*
%TO.N,Net-(D17-A)*%
X153852000Y-73651250D02*
X153810750Y-73610000D01*
%TO.N,Col6*%
X205760750Y-71070000D02*
X205760750Y-76158750D01*
%TO.N,Net-(D35-A)*%
X130057000Y-142300000D02*
X127652000Y-139895000D01*
%TO.N,Col6*%
X205760750Y-90120000D02*
X205760750Y-93558750D01*
X205760750Y-93558750D02*
X209052000Y-96850000D01*
X205760750Y-76158750D02*
X209052000Y-79450000D01*
%TO.N,Net-(D35-A)*%
X127652000Y-130795000D02*
X127617000Y-130760000D01*
%TO.N,Col6*%
X205552000Y-132048000D02*
X209052000Y-128548000D01*
X209052000Y-128548000D02*
X209052000Y-114550000D01*
X205760750Y-53558750D02*
X209052000Y-56850000D01*
%TO.N,Net-(D35-A)*%
X127652000Y-139895000D02*
X127652000Y-130795000D01*
%TO.N,Col6*%
X205760750Y-109170000D02*
X205760750Y-111258750D01*
X209052000Y-56850000D02*
X209052000Y-33950000D01*
X205552000Y-135850000D02*
X205552000Y-132048000D01*
X205552000Y-136950000D02*
X205552000Y-136195000D01*
X209052000Y-33950000D02*
X208072000Y-32970000D01*
%TO.N,Net-(D11-A)*%
X153752000Y-54618750D02*
X153810750Y-54560000D01*
%TO.N,Col6*%
X209052000Y-96850000D02*
X209052000Y-79450000D01*
X205760750Y-111258750D02*
X209052000Y-114550000D01*
%TO.N,Net-(D24-A)*%
X172752000Y-101651250D02*
X172752000Y-92768750D01*
%TO.N,Col6*%
X208072000Y-32970000D02*
X205760750Y-32970000D01*
%TO.N,Net-(D11-A)*%
X156250750Y-66100000D02*
X153752000Y-63601250D01*
%TO.N,Col6*%
X209052000Y-79450000D02*
X209052000Y-56850000D01*
X209052000Y-114550000D02*
X209052000Y-96850000D01*
X205552000Y-135850000D02*
X205552000Y-136950000D01*
X201852000Y-146450000D02*
X205552000Y-142750000D01*
X205552000Y-136195000D02*
X203379500Y-134022500D01*
X203379500Y-134022500D02*
X203379500Y-128220000D01*
%TO.N,Net-(D24-A)*%
X175300750Y-104200000D02*
X172752000Y-101651250D01*
X172752000Y-92768750D02*
X172860750Y-92660000D01*
%TO.N,Col6*%
X190352000Y-146450000D02*
X201852000Y-146450000D01*
X205760750Y-52020000D02*
X205760750Y-53558750D01*
%TO.N,Net-(D11-A)*%
X153752000Y-63601250D02*
X153752000Y-54618750D01*
%TO.N,Col6*%
X205552000Y-142750000D02*
X205552000Y-135850000D01*
%TO.N,Col2*%
X128150000Y-146900000D02*
X123700000Y-142450000D01*
%TO.N,Net-(D36-A)*%
X148952000Y-130856250D02*
X149048250Y-130760000D01*
%TO.N,Net-(D4-A)*%
X137200750Y-47050000D02*
X134852000Y-44701250D01*
%TO.N,Col2*%
X123700000Y-106400000D02*
X125150000Y-104950000D01*
%TO.N,Net-(D36-A)*%
X148952000Y-139763750D02*
X148952000Y-130856250D01*
%TO.N,Col2*%
X125150000Y-104950000D02*
X125150000Y-103000000D01*
X140900000Y-146900000D02*
X128150000Y-146900000D01*
%TO.N,Net-(D4-A)*%
X134852000Y-44701250D02*
X134852000Y-35601250D01*
%TO.N,Col2*%
X123700000Y-142450000D02*
X123700000Y-106400000D01*
%TO.N,Net-(D4-A)*%
X134852000Y-35601250D02*
X134760750Y-35510000D01*
%TO.N,Net-(D36-A)*%
X151488250Y-142300000D02*
X148952000Y-139763750D01*
%TO.N,Row3*%
X174450000Y-156500000D02*
X175600000Y-157650000D01*
X175600000Y-157650000D02*
X202450000Y-157650000D01*
X202450000Y-157650000D02*
X214700000Y-145400000D01*
X214700000Y-114400000D02*
X211200000Y-110900000D01*
X214700000Y-145400000D02*
X214700000Y-114400000D01*
%TO.N,Net-(D5-A)*%
X153852000Y-35551250D02*
X153810750Y-35510000D01*
X153852000Y-44651250D02*
X153852000Y-35551250D01*
X156250750Y-47050000D02*
X153852000Y-44651250D01*
%TO.N,Col5*%
X181948250Y-128220000D02*
X181948250Y-131646250D01*
%TO.N,Col4*%
X167660750Y-52020000D02*
X167660750Y-55958750D01*
%TO.N,Col5*%
X186710750Y-52020000D02*
X186710750Y-55008750D01*
%TO.N,Col4*%
X165552000Y-141650000D02*
X165552000Y-108650000D01*
%TO.N,Col5*%
X185752000Y-129450000D02*
X189252000Y-125950000D01*
%TO.N,Col4*%
X167660750Y-55958750D02*
X170252000Y-58550000D01*
%TO.N,Net-(D18-A)*%
X175300750Y-85150000D02*
X172852000Y-82701250D01*
%TO.N,Col4*%
X170152000Y-72450000D02*
X170252000Y-72350000D01*
X178101000Y-146399000D02*
X176352000Y-144650000D01*
X167660750Y-74858750D02*
X170152000Y-77350000D01*
%TO.N,Col5*%
X189252000Y-95450000D02*
X189252000Y-76150000D01*
%TO.N,Col4*%
X176352000Y-144650000D02*
X167852000Y-144650000D01*
%TO.N,Col5*%
X186710750Y-71070000D02*
X186710750Y-73608750D01*
X186710750Y-35008750D02*
X186710750Y-32970000D01*
%TO.N,Col4*%
X167660750Y-90120000D02*
X167660750Y-92558750D01*
%TO.N,Col5*%
X189252000Y-125950000D02*
X189252000Y-115950000D01*
X189252000Y-76150000D02*
X189252000Y-57550000D01*
X186710750Y-109170000D02*
X186710750Y-113408750D01*
X186710750Y-55008750D02*
X189252000Y-57550000D01*
X185752000Y-146300000D02*
X185752000Y-135450000D01*
X185752000Y-135450000D02*
X185752000Y-129450000D01*
X186710750Y-90120000D02*
X186710750Y-92908750D01*
%TO.N,Col4*%
X170252000Y-72350000D02*
X170252000Y-58550000D01*
%TO.N,Col5*%
X181948250Y-131646250D02*
X185752000Y-135450000D01*
X189252000Y-57550000D02*
X189252000Y-37550000D01*
%TO.N,Col4*%
X167852000Y-144650000D02*
X165552000Y-142350000D01*
%TO.N,Col5*%
X189252000Y-115950000D02*
X189252000Y-95450000D01*
X186710750Y-113408750D02*
X189252000Y-115950000D01*
%TO.N,Net-(D18-A)*%
X172852000Y-82701250D02*
X172852000Y-73618750D01*
X172852000Y-73618750D02*
X172860750Y-73610000D01*
%TO.N,Col5*%
X186710750Y-73608750D02*
X189252000Y-76150000D01*
X186710750Y-92908750D02*
X189252000Y-95450000D01*
%TO.N,Col4*%
X165552000Y-142350000D02*
X165552000Y-141650000D01*
%TO.N,Col5*%
X189252000Y-37550000D02*
X186710750Y-35008750D01*
%TO.N,Net-(D23-A)*%
X153852000Y-101801250D02*
X153852000Y-92701250D01*
X156250750Y-104200000D02*
X153852000Y-101801250D01*
%TO.N,Net-(D7-A)*%
X191952000Y-35551250D02*
X191910750Y-35510000D01*
%TO.N,Col4*%
X170252000Y-58550000D02*
X170252000Y-39450000D01*
%TO.N,Col1*%
X166400000Y-155650000D02*
X128450000Y-155650000D01*
%TO.N,Col4*%
X170152000Y-77350000D02*
X170152000Y-72450000D01*
%TO.N,Net-(D7-A)*%
X194350750Y-47050000D02*
X191952000Y-44651250D01*
%TO.N,Col4*%
X170152000Y-95050000D02*
X170152000Y-77350000D01*
X170252000Y-39450000D02*
X167660750Y-36858750D01*
X170152000Y-104050000D02*
X170152000Y-95050000D01*
X167660750Y-71070000D02*
X167660750Y-74858750D01*
X165552000Y-108650000D02*
X170152000Y-104050000D01*
X165552000Y-141650000D02*
X165552000Y-134450000D01*
X162898250Y-131796250D02*
X162898250Y-128220000D01*
%TO.N,Net-(D23-A)*%
X153852000Y-92701250D02*
X153810750Y-92660000D01*
%TO.N,Net-(D7-A)*%
X191952000Y-44651250D02*
X191952000Y-35551250D01*
%TO.N,Col4*%
X167660750Y-92558750D02*
X170152000Y-95050000D01*
X167660750Y-36858750D02*
X167660750Y-32970000D01*
X165552000Y-134450000D02*
X162898250Y-131796250D01*
%TO.N,Col1*%
X128450000Y-155650000D02*
X123050000Y-150250000D01*
%TD*%
%TA.AperFunction,Conductor*%
%TO.N,Row4*%
G36*
X210616100Y-132470429D02*
G01*
X210683365Y-132477139D01*
X210691257Y-132481370D01*
X210693846Y-132489942D01*
X210693687Y-132491022D01*
X210401846Y-133986689D01*
X210396899Y-133994152D01*
X210390363Y-133996148D01*
X209409637Y-133996148D01*
X209401364Y-133992721D01*
X209398154Y-133986689D01*
X209106312Y-132491022D01*
X209108091Y-132482245D01*
X209115554Y-132477298D01*
X209116634Y-132477139D01*
X209898847Y-132399115D01*
X209901153Y-132399115D01*
X210616100Y-132470429D01*
G37*
%TD.AperFunction*%
%TD*%
M02*
