M48
; DRILL file KiCad 10.0.0 date 2026-05-12T01:23:40
; FORMAT={-:-/ absolute / metric / decimal}
; #@! TF.CreationDate,2026-05-12T01:23:40-03:00
; #@! TF.GenerationSoftware,Kicad,Pcbnew,10.0.0
; #@! TF.FileFunction,Plated,1,2,PTH
FMAT,2
METRIC
; #@! TA.AperFunction,Plated,PTH,ViaDrill
T1C0.800
; #@! TA.AperFunction,Plated,PTH,ComponentDrill
T2C0.800
; #@! TA.AperFunction,Plated,PTH,ComponentDrill
T3C1.000
; #@! TA.AperFunction,Plated,PTH,ComponentDrill
T4C3.000
; #@! TA.AperFunction,Plated,PTH,ComponentDrill
T5C3.988
%
G90
G05
T1
X123.05Y-150.25
X125.15Y-103.0
X140.9Y-146.9
X166.4Y-155.65
X171.65Y-146.75
X174.45Y-156.5
X178.101Y-146.399
X180.1Y-156.1
X185.752Y-146.3
X190.352Y-146.45
X209.9Y-132.4
X211.2Y-110.9
T2
X130.057Y-142.3
X137.201Y-47.05
X137.201Y-66.1
X137.201Y-85.15
X137.201Y-104.2
X137.677Y-142.3
X144.821Y-47.05
X144.821Y-66.1
X144.821Y-85.15
X144.821Y-104.2
X146.726Y-123.25
X151.488Y-142.3
X154.346Y-123.25
X156.251Y-47.05
X156.251Y-66.1
X156.251Y-85.15
X156.251Y-104.2
X159.108Y-142.3
X163.871Y-47.05
X163.871Y-66.1
X163.871Y-85.15
X163.871Y-104.2
X170.538Y-142.3
X175.301Y-47.05
X175.301Y-66.1
X175.301Y-85.15
X175.301Y-104.2
X175.301Y-123.25
X178.158Y-142.3
X182.921Y-47.05
X182.921Y-66.1
X182.921Y-85.15
X182.921Y-104.2
X182.921Y-123.25
X191.969Y-142.3
X194.351Y-47.05
X194.351Y-66.1
X194.351Y-85.15
X194.351Y-104.2
X194.351Y-123.25
X199.589Y-142.3
X201.971Y-47.05
X201.971Y-66.1
X201.971Y-85.15
X201.971Y-104.2
X201.971Y-123.25
T3
X125.398Y-76.277
X125.398Y-78.817
X125.398Y-81.357
X125.398Y-83.897
X125.398Y-86.437
X127.938Y-76.277
X127.938Y-78.817
X127.938Y-81.357
X127.938Y-83.897
X127.938Y-86.437
X151.302Y-149.85
X151.302Y-152.39
X153.842Y-149.85
X153.842Y-152.39
X156.382Y-149.85
X156.382Y-152.39
X158.922Y-149.85
X158.922Y-152.39
X161.462Y-149.85
X161.462Y-152.39
X164.002Y-149.85
X164.002Y-152.39
X166.542Y-149.85
X166.542Y-152.39
X169.082Y-149.85
X169.082Y-152.39
X171.622Y-149.85
X171.622Y-152.39
X174.162Y-149.85
X174.162Y-152.39
X176.702Y-149.85
X176.702Y-152.39
X179.242Y-149.85
X179.242Y-152.39
X181.782Y-149.85
X181.782Y-152.39
X184.322Y-149.85
X184.322Y-152.39
X186.862Y-149.85
X186.862Y-152.39
X189.402Y-149.85
X189.402Y-152.39
X191.942Y-149.85
X191.942Y-152.39
X194.482Y-149.85
X194.482Y-152.39
X197.022Y-149.85
X197.022Y-152.39
X199.562Y-149.85
X199.562Y-152.39
T4
X131.367Y-130.76
X137.717Y-128.22
X138.511Y-35.51
X138.511Y-54.56
X138.511Y-73.61
X138.511Y-92.66
X144.861Y-32.97
X144.861Y-52.02
X144.861Y-71.07
X144.861Y-90.12
X148.036Y-111.71
X152.798Y-130.76
X154.386Y-109.17
X157.561Y-35.51
X157.561Y-54.56
X157.561Y-73.61
X157.561Y-92.66
X159.148Y-128.22
X163.911Y-32.97
X163.911Y-52.02
X163.911Y-71.07
X163.911Y-90.12
X171.848Y-130.76
X176.611Y-35.51
X176.611Y-54.56
X176.611Y-73.61
X176.611Y-92.66
X176.611Y-111.71
X178.198Y-128.22
X182.961Y-32.97
X182.961Y-52.02
X182.961Y-71.07
X182.961Y-90.12
X182.961Y-109.17
X193.279Y-130.76
X195.661Y-35.51
X195.661Y-54.56
X195.661Y-73.61
X195.661Y-92.66
X195.661Y-111.71
X199.629Y-128.22
X202.011Y-32.97
X202.011Y-52.02
X202.011Y-71.07
X202.011Y-90.12
X202.011Y-109.17
T5
X135.177Y-133.3
X142.321Y-38.05
X142.321Y-57.1
X142.321Y-76.15
X142.321Y-95.2
X151.846Y-114.25
X156.608Y-133.3
X161.371Y-38.05
X161.371Y-57.1
X161.371Y-76.15
X161.371Y-95.2
X175.658Y-133.3
X180.421Y-38.05
X180.421Y-57.1
X180.421Y-76.15
X180.421Y-95.2
X180.421Y-114.25
X197.089Y-133.3
X199.471Y-38.05
X199.471Y-57.1
X199.471Y-76.15
X199.471Y-95.2
X199.471Y-114.25
M30
