%TF.GenerationSoftware,KiCad,Pcbnew,10.0.0*%
%TF.CreationDate,2026-05-12T01:15:35-03:00*%
%TF.ProjectId,Placa,506c6163-612e-46b6-9963-61645f706362,rev?*%
%TF.SameCoordinates,Original*%
%TF.FileFunction,Copper,L1,Top*%
%TF.FilePolarity,Positive*%
%FSLAX46Y46*%
G04 Gerber Fmt 4.6, Leading zero omitted, Abs format (unit mm)*
G04 Created by KiCad (PCBNEW 10.0.0) date 2026-05-12 01:15:35*
%MOMM*%
%LPD*%
G01*
G04 APERTURE LIST*
G04 Aperture macros list*
%AMRoundRect*
0 Rectangle with rounded corners*
0 $1 Rounding radius*
0 $2 $3 $4 $5 $6 $7 $8 $9 X,Y pos of 4 corners*
0 Add a 4 corners polygon primitive as box body*
4,1,4,$2,$3,$4,$5,$6,$7,$8,$9,$2,$3,0*
0 Add four circle primitives for the rounded corners*
1,1,$1+$1,$2,$3*
1,1,$1+$1,$4,$5*
1,1,$1+$1,$6,$7*
1,1,$1+$1,$8,$9*
0 Add four rect primitives between the rounded corners*
20,1,$1+$1,$2,$3,$4,$5,0*
20,1,$1+$1,$4,$5,$6,$7,0*
20,1,$1+$1,$6,$7,$8,$9,0*
20,1,$1+$1,$8,$9,$2,$3,0*%
G04 Aperture macros list end*
%TA.AperFunction,ComponentPad*%
%ADD10C,3.000000*%
%TD*%
%TA.AperFunction,ComponentPad*%
%ADD11C,3.987800*%
%TD*%
%TA.AperFunction,ComponentPad*%
%ADD12RoundRect,0.312500X0.687500X0.687500X-0.687500X0.687500X-0.687500X-0.687500X0.687500X-0.687500X0*%
%TD*%
%TA.AperFunction,ComponentPad*%
%ADD13C,2.000000*%
%TD*%
%TA.AperFunction,ComponentPad*%
%ADD14R,2.000000X2.000000*%
%TD*%
%TA.AperFunction,ViaPad*%
%ADD15C,1.600000*%
%TD*%
%TA.AperFunction,Conductor*%
%ADD16C,1.000000*%
%TD*%
G04 APERTURE END LIST*
D10*
%TO.P,SW2,*%
%TO.N,*%
X58102500Y-35560000D03*
D11*
X61912500Y-38100000D03*
D10*
X64452500Y-33020000D03*
%TD*%
%TO.P,SW15,*%
%TO.N,*%
X58102500Y-73660000D03*
D11*
X61912500Y-76200000D03*
D10*
X64452500Y-71120000D03*
%TD*%
D12*
%TO.P,D1,1,K_1*%
%TO.N,Row0*%
X40600000Y-47100000D03*
D13*
%TO.P,D1,2,A_2*%
%TO.N,Net-(D1-A)*%
X32980000Y-47100000D03*
%TD*%
D10*
%TO.P,SW14,*%
%TO.N,*%
X34290000Y-73660000D03*
D11*
X38100000Y-76200000D03*
D10*
X40640000Y-71120000D03*
%TD*%
D12*
%TO.P,D8,1,K_1*%
%TO.N,Row1*%
X40600000Y-66150000D03*
D13*
%TO.P,D8,2,A_2*%
%TO.N,Net-(D8-A)*%
X32980000Y-66150000D03*
%TD*%
D10*
%TO.P,SW20,*%
%TO.N,*%
X39052500Y-92710000D03*
D11*
X42862500Y-95250000D03*
D10*
X45402500Y-90170000D03*
%TD*%
D12*
%TO.P,D2,1,K_1*%
%TO.N,Row0*%
X64412500Y-47100000D03*
D13*
%TO.P,D2,2,A_2*%
%TO.N,Net-(D2-A)*%
X56792500Y-47100000D03*
%TD*%
D12*
%TO.P,D21,1,K_1*%
%TO.N,Row3*%
X71556250Y-104250000D03*
D13*
%TO.P,D21,2,A_2*%
%TO.N,Net-(D21-A)*%
X63936250Y-104250000D03*
%TD*%
D12*
%TO.P,D15,1,K_1*%
%TO.N,Row2*%
X64412500Y-85200000D03*
D13*
%TO.P,D15,2,A_2*%
%TO.N,Net-(D15-A)*%
X56792500Y-85200000D03*
%TD*%
D10*
%TO.P,SW34,*%
%TO.N,*%
X89058750Y-130810000D03*
D11*
X92868750Y-133350000D03*
D10*
X95408750Y-128270000D03*
%TD*%
%TO.P,SW9,*%
%TO.N,*%
X58102500Y-54610000D03*
D11*
X61912500Y-57150000D03*
D10*
X64452500Y-52070000D03*
%TD*%
D12*
%TO.P,D32,1,K_1*%
%TO.N,Row5*%
X45362500Y-142350000D03*
D13*
%TO.P,D32,2,A_2*%
%TO.N,Net-(D32-A)*%
X37742500Y-142350000D03*
%TD*%
D12*
%TO.P,D33,1,K_1*%
%TO.N,Row5*%
X73937500Y-142350000D03*
D13*
%TO.P,D33,2,A_2*%
%TO.N,Net-(D33-A)*%
X66317500Y-142350000D03*
%TD*%
D12*
%TO.P,D26,1,K_1*%
%TO.N,Row4*%
X38218750Y-123300000D03*
D13*
%TO.P,D26,2,A_2*%
%TO.N,Net-(D26-A)*%
X30598750Y-123300000D03*
%TD*%
D10*
%TO.P,SW21,*%
%TO.N,*%
X65246250Y-92710000D03*
D11*
X69056250Y-95250000D03*
D10*
X71596250Y-90170000D03*
%TD*%
%TO.P,SW33,*%
%TO.N,*%
X67627500Y-130810000D03*
D11*
X71437500Y-133350000D03*
D10*
X73977500Y-128270000D03*
%TD*%
D12*
%TO.P,D27,1,K_1*%
%TO.N,Row4*%
X59650000Y-123300000D03*
D13*
%TO.P,D27,2,A_2*%
%TO.N,Net-(D27-A)*%
X52030000Y-123300000D03*
%TD*%
D12*
%TO.P,D3,1,K_1*%
%TO.N,Row0*%
X85843750Y-47100000D03*
D13*
%TO.P,D3,2,A_2*%
%TO.N,Net-(D3-A)*%
X78223750Y-47100000D03*
%TD*%
D12*
%TO.P,D9,1,K_1*%
%TO.N,Row1*%
X64412500Y-66150000D03*
D13*
%TO.P,D9,2,A_2*%
%TO.N,Net-(D9-A)*%
X56792500Y-66150000D03*
%TD*%
D12*
%TO.P,D14,1,K_1*%
%TO.N,Row2*%
X40600000Y-85200000D03*
D13*
%TO.P,D14,2,A_2*%
%TO.N,Net-(D14-A)*%
X32980000Y-85200000D03*
%TD*%
D14*
%TO.P,J3,1,Pin_1_1*%
%TO.N,Row1*%
X85775000Y-76600000D03*
D13*
%TO.P,J3,2,Pin_2_2*%
%TO.N,Row0*%
X88315000Y-76600000D03*
%TO.P,J3,3,Pin_3_3*%
%TO.N,Row2*%
X85775000Y-79140000D03*
%TO.P,J3,4,Pin_4_4*%
%TO.N,Col0*%
X88315000Y-79140000D03*
%TO.P,J3,5,Pin_5_5*%
%TO.N,Row3*%
X85775000Y-81680000D03*
%TO.P,J3,6,Pin_6_6*%
%TO.N,Col1*%
X88315000Y-81680000D03*
%TO.P,J3,7,Pin_7_7*%
%TO.N,unconnected-(J3-Pin_7-Pad7)*%
X85775000Y-84220000D03*
%TO.P,J3,8,Pin_8_8*%
%TO.N,Row5*%
X88315000Y-84220000D03*
%TO.P,J3,9,Pin_9_9*%
%TO.N,Row4*%
X85775000Y-86760000D03*
%TO.P,J3,10,Pin_10_10*%
%TO.N,Col2*%
X88315000Y-86760000D03*
%TD*%
D10*
%TO.P,SW26,*%
%TO.N,*%
X31908750Y-111760000D03*
D11*
X35718750Y-114300000D03*
D10*
X38258750Y-109220000D03*
%TD*%
%TO.P,SW28,*%
%TO.N,*%
X74771250Y-111760000D03*
D11*
X78581250Y-114300000D03*
D10*
X81121250Y-109220000D03*
%TD*%
%TO.P,SW27,*%
%TO.N,*%
X53340000Y-111760000D03*
D11*
X57150000Y-114300000D03*
D10*
X59690000Y-109220000D03*
%TD*%
%TO.P,SW1,*%
%TO.N,*%
X34290000Y-35560000D03*
D11*
X38100000Y-38100000D03*
D10*
X40640000Y-33020000D03*
%TD*%
D12*
%TO.P,D20,1,K_1*%
%TO.N,Row3*%
X45362500Y-104250000D03*
D13*
%TO.P,D20,2,A_2*%
%TO.N,Net-(D20-A)*%
X37742500Y-104250000D03*
%TD*%
D12*
%TO.P,D28,1,K_1*%
%TO.N,Row4*%
X81081250Y-123300000D03*
D13*
%TO.P,D28,2,A_2*%
%TO.N,Net-(D28-A)*%
X73461250Y-123300000D03*
%TD*%
D12*
%TO.P,D34,1,K_1*%
%TO.N,Row5*%
X95368750Y-142350000D03*
D13*
%TO.P,D34,2,A_2*%
%TO.N,Net-(D34-A)*%
X87748750Y-142350000D03*
%TD*%
D10*
%TO.P,SW3,*%
%TO.N,*%
X79533750Y-35560000D03*
D11*
X83343750Y-38100000D03*
D10*
X85883750Y-33020000D03*
%TD*%
%TO.P,SW32,*%
%TO.N,*%
X39052500Y-130810000D03*
D11*
X42862500Y-133350000D03*
D10*
X45402500Y-128270000D03*
%TD*%
%TO.P,SW8,*%
%TO.N,*%
X34290000Y-54610000D03*
D11*
X38100000Y-57150000D03*
D10*
X40640000Y-52070000D03*
%TD*%
D15*
%TO.N,Col1*%
X98850000Y-76050000D03*
%TO.N,Col0*%
X94550000Y-55450000D03*
%TO.N,Col2*%
X91950000Y-92200000D03*
%TD*%
%TO.N,Col1*%
D16*
X93220000Y-81680000D02*
X88315000Y-81680000D01*
X98850000Y-76050000D02*
X93220000Y-81680000D01*
%TO.N,Row0*%
X89250000Y-47100000D02*
X85843750Y-47100000D01*
X45850000Y-49200000D02*
X43750000Y-47100000D01*
X90100000Y-76600000D02*
X88315000Y-76600000D01*
X64412500Y-47100000D02*
X66400000Y-47100000D01*
X43750000Y-47100000D02*
X40600000Y-47100000D01*
X92100000Y-54300000D02*
X87000000Y-49200000D01*
X68500000Y-49200000D02*
X45850000Y-49200000D01*
X92100000Y-54300000D02*
X92100000Y-49950000D01*
X87000000Y-49200000D02*
X68500000Y-49200000D01*
X66400000Y-47100000D02*
X68500000Y-49200000D01*
X92100000Y-74600000D02*
X90100000Y-76600000D01*
X92100000Y-54300000D02*
X92100000Y-74600000D01*
X92100000Y-49950000D02*
X89250000Y-47100000D01*
%TO.N,Col0*%
X95300000Y-75800000D02*
X91960000Y-79140000D01*
X91960000Y-79140000D02*
X88315000Y-79140000D01*
X95300000Y-56200000D02*
X95300000Y-75800000D01*
X94550000Y-55450000D02*
X95300000Y-56200000D01*
%TO.N,Row1*%
X85775000Y-71775000D02*
X85775000Y-76600000D01*
X41100000Y-68000000D02*
X40600000Y-67500000D01*
X69600000Y-68000000D02*
X67750000Y-66150000D01*
X67750000Y-66150000D02*
X64412500Y-66150000D01*
X82000000Y-68000000D02*
X85775000Y-71775000D01*
X69600000Y-68000000D02*
X41100000Y-68000000D01*
X40600000Y-67500000D02*
X40600000Y-66150000D01*
X69600000Y-68000000D02*
X82000000Y-68000000D01*
%TO.N,Row3*%
X80350000Y-82550000D02*
X81220000Y-81680000D01*
X75700000Y-106500000D02*
X52750000Y-106500000D01*
X80350000Y-85400000D02*
X80350000Y-82550000D01*
X52750000Y-106500000D02*
X50500000Y-104250000D01*
X73450000Y-104250000D02*
X75700000Y-106500000D01*
X82900000Y-87950000D02*
X80350000Y-85400000D01*
X81220000Y-81680000D02*
X85775000Y-81680000D01*
X75700000Y-106500000D02*
X79200000Y-106500000D01*
X50500000Y-104250000D02*
X45362500Y-104250000D01*
X79200000Y-106500000D02*
X82900000Y-102800000D01*
X82900000Y-102800000D02*
X82900000Y-87950000D01*
X71556250Y-104250000D02*
X73450000Y-104250000D01*
%TO.N,Row2*%
X68200000Y-87000000D02*
X72200000Y-87000000D01*
X64412500Y-85200000D02*
X66400000Y-85200000D01*
X43950000Y-85200000D02*
X40600000Y-85200000D01*
X80060000Y-79140000D02*
X85775000Y-79140000D01*
X72200000Y-87000000D02*
X80060000Y-79140000D01*
X68200000Y-87000000D02*
X45750000Y-87000000D01*
X66400000Y-85200000D02*
X68200000Y-87000000D01*
X45750000Y-87000000D02*
X43950000Y-85200000D01*
%TO.N,Col2*%
X88315000Y-88565000D02*
X88315000Y-86760000D01*
X91950000Y-92200000D02*
X88315000Y-88565000D01*
%TO.N,Row5*%
X102300000Y-142900000D02*
X100200000Y-145000000D01*
X81600000Y-145000000D02*
X94300000Y-145000000D01*
X81600000Y-145000000D02*
X78900000Y-145000000D01*
X48050000Y-142350000D02*
X45362500Y-142350000D01*
X95368750Y-142350000D02*
X100350000Y-142350000D01*
X100350000Y-142350000D02*
X102300000Y-140400000D01*
X100900000Y-123900000D02*
X97200000Y-123900000D01*
X73937500Y-142350000D02*
X76250000Y-142350000D01*
X102300000Y-140400000D02*
X102300000Y-142900000D01*
X97700000Y-89600000D02*
X92320000Y-84220000D01*
X50700000Y-145000000D02*
X48050000Y-142350000D01*
X78900000Y-145000000D02*
X50700000Y-145000000D01*
X76250000Y-142350000D02*
X78900000Y-145000000D01*
X93800000Y-120500000D02*
X93800000Y-103050000D01*
X81600000Y-145000000D02*
X86300000Y-145000000D01*
X92320000Y-84220000D02*
X88315000Y-84220000D01*
X93800000Y-103050000D02*
X97700000Y-99150000D01*
X100200000Y-145000000D02*
X93400000Y-145000000D01*
X97700000Y-99150000D02*
X97700000Y-89600000D01*
X102300000Y-125300000D02*
X100900000Y-123900000D01*
X97200000Y-123900000D02*
X93800000Y-120500000D01*
X102300000Y-140400000D02*
X102300000Y-125300000D01*
%TO.N,Row4*%
X83400000Y-125600000D02*
X64400000Y-125600000D01*
X88300000Y-94350000D02*
X85750000Y-91800000D01*
X39300000Y-125600000D02*
X38218750Y-124518750D01*
X85775000Y-91775000D02*
X85775000Y-86760000D01*
X64400000Y-125600000D02*
X39300000Y-125600000D01*
X85700000Y-123300000D02*
X83400000Y-125600000D01*
X88300000Y-120700000D02*
X88300000Y-94350000D01*
X85750000Y-91800000D02*
X85775000Y-91775000D01*
X81081250Y-123300000D02*
X85700000Y-123300000D01*
X59650000Y-123300000D02*
X62100000Y-123300000D01*
X38218750Y-124518750D02*
X38218750Y-123300000D01*
X62100000Y-123300000D02*
X64400000Y-125600000D01*
X85700000Y-123300000D02*
X88300000Y-120700000D01*
%TD*%
M02*
