M48
; DRILL file KiCad 10.0.0 date 2026-05-12T01:15:34
; FORMAT={-:-/ absolute / metric / decimal}
; #@! TF.CreationDate,2026-05-12T01:15:34-03:00
; #@! TF.GenerationSoftware,Kicad,Pcbnew,10.0.0
; #@! TF.FileFunction,Plated,1,2,PTH
FMAT,2
METRIC
; #@! TA.AperFunction,Plated,PTH,ViaDrill
T1C0.800
; #@! TA.AperFunction,Plated,PTH,ComponentDrill
T2C0.800
; #@! TA.AperFunction,Plated,PTH,ComponentDrill
T3C1.000
; #@! TA.AperFunction,Plated,PTH,ComponentDrill
T4C3.000
; #@! TA.AperFunction,Plated,PTH,ComponentDrill
T5C3.988
%
G90
G05
T1
X91.95Y-92.2
X94.55Y-55.45
X98.85Y-76.05
T2
X30.599Y-123.3
X32.98Y-47.1
X32.98Y-66.15
X32.98Y-85.2
X37.742Y-104.25
X37.742Y-142.35
X38.219Y-123.3
X40.6Y-47.1
X40.6Y-66.15
X40.6Y-85.2
X45.362Y-104.25
X45.362Y-142.35
X52.03Y-123.3
X56.792Y-47.1
X56.792Y-66.15
X56.792Y-85.2
X59.65Y-123.3
X63.936Y-104.25
X64.412Y-47.1
X64.412Y-66.15
X64.412Y-85.2
X66.317Y-142.35
X71.556Y-104.25
X73.461Y-123.3
X73.938Y-142.35
X78.224Y-47.1
X81.081Y-123.3
X85.844Y-47.1
X87.749Y-142.35
X95.369Y-142.35
T3
X85.775Y-76.6
X85.775Y-79.14
X85.775Y-81.68
X85.775Y-84.22
X85.775Y-86.76
X88.315Y-76.6
X88.315Y-79.14
X88.315Y-81.68
X88.315Y-84.22
X88.315Y-86.76
T4
X31.909Y-111.76
X34.29Y-35.56
X34.29Y-54.61
X34.29Y-73.66
X38.259Y-109.22
X39.052Y-92.71
X39.052Y-130.81
X40.64Y-33.02
X40.64Y-52.07
X40.64Y-71.12
X45.402Y-90.17
X45.402Y-128.27
X53.34Y-111.76
X58.102Y-35.56
X58.102Y-54.61
X58.102Y-73.66
X59.69Y-109.22
X64.453Y-33.02
X64.453Y-52.07
X64.453Y-71.12
X65.246Y-92.71
X67.627Y-130.81
X71.596Y-90.17
X73.977Y-128.27
X74.771Y-111.76
X79.534Y-35.56
X81.121Y-109.22
X85.884Y-33.02
X89.059Y-130.81
X95.409Y-128.27
T5
X35.719Y-114.3
X38.1Y-38.1
X38.1Y-57.15
X38.1Y-76.2
X42.862Y-95.25
X42.862Y-133.35
X57.15Y-114.3
X61.912Y-38.1
X61.912Y-57.15
X61.912Y-76.2
X69.056Y-95.25
X71.438Y-133.35
X78.581Y-114.3
X83.344Y-38.1
X92.869Y-133.35
M30
