%TF.GenerationSoftware,KiCad,Pcbnew,10.0.0*%
%TF.CreationDate,2026-05-12T00:54:40-03:00*%
%TF.ProjectId,Placa,506c6163-612e-46b6-9963-61645f706362,rev?*%
%TF.SameCoordinates,Original*%
%TF.FileFunction,Copper,L1,Top*%
%TF.FilePolarity,Positive*%
%FSLAX46Y46*%
G04 Gerber Fmt 4.6, Leading zero omitted, Abs format (unit mm)*
G04 Created by KiCad (PCBNEW 10.0.0) date 2026-05-12 00:54:40*
%MOMM*%
%LPD*%
G01*
G04 APERTURE LIST*
G04 Aperture macros list*
%AMRoundRect*
0 Rectangle with rounded corners*
0 $1 Rounding radius*
0 $2 $3 $4 $5 $6 $7 $8 $9 X,Y pos of 4 corners*
0 Add a 4 corners polygon primitive as box body*
4,1,4,$2,$3,$4,$5,$6,$7,$8,$9,$2,$3,0*
0 Add four circle primitives for the rounded corners*
1,1,$1+$1,$2,$3*
1,1,$1+$1,$4,$5*
1,1,$1+$1,$6,$7*
1,1,$1+$1,$8,$9*
0 Add four rect primitives between the rounded corners*
20,1,$1+$1,$2,$3,$4,$5,0*
20,1,$1+$1,$4,$5,$6,$7,0*
20,1,$1+$1,$6,$7,$8,$9,0*
20,1,$1+$1,$8,$9,$2,$3,0*%
G04 Aperture macros list end*
%TA.AperFunction,ComponentPad*%
%ADD10RoundRect,0.312500X0.687500X0.687500X-0.687500X0.687500X-0.687500X-0.687500X0.687500X-0.687500X0*%
%TD*%
%TA.AperFunction,ComponentPad*%
%ADD11C,2.000000*%
%TD*%
%TA.AperFunction,ComponentPad*%
%ADD12R,2.000000X2.000000*%
%TD*%
%TA.AperFunction,ComponentPad*%
%ADD13R,1.700000X1.700000*%
%TD*%
%TA.AperFunction,ComponentPad*%
%ADD14C,1.700000*%
%TD*%
%TA.AperFunction,ViaPad*%
%ADD15C,1.600000*%
%TD*%
%TA.AperFunction,Conductor*%
%ADD16C,1.000000*%
%TD*%
G04 APERTURE END LIST*
D10*
%TO.P,D7,1,K_1*%
%TO.N,Row0*%
X201970750Y-47050000D03*
D11*
%TO.P,D7,2,A_2*%
%TO.N,Net-(D7-A)*%
X194350750Y-47050000D03*
%TD*%
D10*
%TO.P,D10,1,K_1*%
%TO.N,Row1*%
X144820750Y-66100000D03*
D11*
%TO.P,D10,2,A_2*%
%TO.N,Net-(D10-A)*%
X137200750Y-66100000D03*
%TD*%
D12*
%TO.P,J4,1,Pin_1_1*%
%TO.N,Row0*%
X125398000Y-76277000D03*
D11*
%TO.P,J4,2,Pin_2_2*%
%TO.N,Row1*%
X127938000Y-76277000D03*
%TO.P,J4,3,Pin_3_3*%
%TO.N,Col0*%
X125398000Y-78817000D03*
%TO.P,J4,4,Pin_4_4*%
%TO.N,Row2*%
X127938000Y-78817000D03*
%TO.P,J4,5,Pin_5_5*%
%TO.N,Col1*%
X125398000Y-81357000D03*
%TO.P,J4,6,Pin_6_6*%
%TO.N,Row3*%
X127938000Y-81357000D03*
%TO.P,J4,7,Pin_7_7*%
%TO.N,Row5*%
X125398000Y-83897000D03*
%TO.P,J4,8,Pin_8_8*%
%TO.N,unconnected-(J4-Pin_8-Pad8)*%
X127938000Y-83897000D03*
%TO.P,J4,9,Pin_9_9*%
%TO.N,Col2*%
X125398000Y-86437000D03*
%TO.P,J4,10,Pin_10_10*%
%TO.N,Row4*%
X127938000Y-86437000D03*
%TD*%
D10*
%TO.P,D12,1,K_1*%
%TO.N,Row1*%
X182920750Y-66100000D03*
D11*
%TO.P,D12,2,A_2*%
%TO.N,Net-(D12-A)*%
X175300750Y-66100000D03*
%TD*%
D10*
%TO.P,D18,1,K_1*%
%TO.N,Row2*%
X182920750Y-85150000D03*
D11*
%TO.P,D18,2,A_2*%
%TO.N,Net-(D18-A)*%
X175300750Y-85150000D03*
%TD*%
D10*
%TO.P,D5,1,K_1*%
%TO.N,Row0*%
X163870750Y-47050000D03*
D11*
%TO.P,D5,2,A_2*%
%TO.N,Net-(D5-A)*%
X156250750Y-47050000D03*
%TD*%
D10*
%TO.P,D38,1,K_1*%
%TO.N,Row5*%
X199589500Y-142300000D03*
D11*
%TO.P,D38,2,A_2*%
%TO.N,Net-(D38-A)*%
X191969500Y-142300000D03*
%TD*%
D10*
%TO.P,D19,1,K_1*%
%TO.N,Row2*%
X201970750Y-85150000D03*
D11*
%TO.P,D19,2,A_2*%
%TO.N,Net-(D19-A)*%
X194350750Y-85150000D03*
%TD*%
D10*
%TO.P,D36,1,K_1*%
%TO.N,Row5*%
X159108250Y-142300000D03*
D11*
%TO.P,D36,2,A_2*%
%TO.N,Net-(D36-A)*%
X151488250Y-142300000D03*
%TD*%
D10*
%TO.P,D16,1,K_1*%
%TO.N,Row2*%
X144820750Y-85150000D03*
D11*
%TO.P,D16,2,A_2*%
%TO.N,Net-(D16-A)*%
X137200750Y-85150000D03*
%TD*%
D10*
%TO.P,D23,1,K_1*%
%TO.N,Row3*%
X163870750Y-104200000D03*
D11*
%TO.P,D23,2,A_2*%
%TO.N,Net-(D23-A)*%
X156250750Y-104200000D03*
%TD*%
D10*
%TO.P,D30,1,K_1*%
%TO.N,Row4*%
X182920750Y-123250000D03*
D11*
%TO.P,D30,2,A_2*%
%TO.N,Net-(D30-A)*%
X175300750Y-123250000D03*
%TD*%
D10*
%TO.P,D25,1,K_1*%
%TO.N,Row3*%
X201970750Y-104200000D03*
D11*
%TO.P,D25,2,A_2*%
%TO.N,Net-(D25-A)*%
X194350750Y-104200000D03*
%TD*%
D10*
%TO.P,D37,1,K_1*%
%TO.N,Row5*%
X178158250Y-142300000D03*
D11*
%TO.P,D37,2,A_2*%
%TO.N,Net-(D37-A)*%
X170538250Y-142300000D03*
%TD*%
D10*
%TO.P,D22,1,K_1*%
%TO.N,Row3*%
X144820750Y-104200000D03*
D11*
%TO.P,D22,2,A_2*%
%TO.N,Net-(D22-A)*%
X137200750Y-104200000D03*
%TD*%
D10*
%TO.P,D31,1,K_1*%
%TO.N,Row4*%
X201970750Y-123250000D03*
D11*
%TO.P,D31,2,A_2*%
%TO.N,Net-(D31-A)*%
X194350750Y-123250000D03*
%TD*%
D10*
%TO.P,D24,1,K_1*%
%TO.N,Row3*%
X182920750Y-104200000D03*
D11*
%TO.P,D24,2,A_2*%
%TO.N,Net-(D24-A)*%
X175300750Y-104200000D03*
%TD*%
D10*
%TO.P,D6,1,K_1*%
%TO.N,Row0*%
X182920750Y-47050000D03*
D11*
%TO.P,D6,2,A_2*%
%TO.N,Net-(D6-A)*%
X175300750Y-47050000D03*
%TD*%
D10*
%TO.P,D29,1,K_1*%
%TO.N,Row4*%
X154345750Y-123250000D03*
D11*
%TO.P,D29,2,A_2*%
%TO.N,Net-(D29-A)*%
X146725750Y-123250000D03*
%TD*%
D10*
%TO.P,D4,1,K_1*%
%TO.N,Row0*%
X144820750Y-47050000D03*
D11*
%TO.P,D4,2,A_2*%
%TO.N,Net-(D4-A)*%
X137200750Y-47050000D03*
%TD*%
D10*
%TO.P,D35,1,K_1*%
%TO.N,Row5*%
X137677000Y-142300000D03*
D11*
%TO.P,D35,2,A_2*%
%TO.N,Net-(D35-A)*%
X130057000Y-142300000D03*
%TD*%
D10*
%TO.P,D11,1,K_1*%
%TO.N,Row1*%
X163870750Y-66100000D03*
D11*
%TO.P,D11,2,A_2*%
%TO.N,Net-(D11-A)*%
X156250750Y-66100000D03*
%TD*%
D13*
%TO.P,J2,1,Pin_1_1*%
%TO.N,unconnected-(J2-Pin_1-Pad1)*%
X151302000Y-149850000D03*
D14*
%TO.P,J2,2,Pin_2_2*%
%TO.N,unconnected-(J2-Pin_2-Pad2)*%
X151302000Y-152390000D03*
%TO.P,J2,3,Pin_3_3*%
%TO.N,unconnected-(J2-Pin_3-Pad3)*%
X153842000Y-149850000D03*
%TO.P,J2,4,Pin_4_4*%
%TO.N,unconnected-(J2-Pin_4-Pad4)*%
X153842000Y-152390000D03*
%TO.P,J2,5,Pin_5_5*%
%TO.N,unconnected-(J2-Pin_5-Pad5)*%
X156382000Y-149850000D03*
%TO.P,J2,6,Pin_6_6*%
%TO.N,unconnected-(J2-Pin_6-Pad6)*%
X156382000Y-152390000D03*
%TO.P,J2,7,Pin_7_7*%
%TO.N,unconnected-(J2-Pin_7-Pad7)*%
X158922000Y-149850000D03*
%TO.P,J2,8,Pin_8_8*%
%TO.N,unconnected-(J2-Pin_8-Pad8)*%
X158922000Y-152390000D03*
%TO.P,J2,9,Pin_9_9*%
%TO.N,unconnected-(J2-Pin_9-Pad9)*%
X161462000Y-149850000D03*
%TO.P,J2,10,Pin_10_10*%
%TO.N,unconnected-(J2-Pin_10-Pad10)*%
X161462000Y-152390000D03*
%TO.P,J2,11,Pin_11_11*%
%TO.N,unconnected-(J2-Pin_11-Pad11)*%
X164002000Y-149850000D03*
D11*
%TO.P,J2,12,Pin_12_12*%
%TO.N,Col0*%
X164002000Y-152390000D03*
D14*
%TO.P,J2,13,Pin_13_13*%
%TO.N,unconnected-(J2-Pin_13-Pad13)*%
X166542000Y-149850000D03*
%TO.P,J2,14,Pin_14_14*%
%TO.N,unconnected-(J2-Pin_14-Pad14)*%
X166542000Y-152390000D03*
D11*
%TO.P,J2,15,Pin_15_15*%
%TO.N,Col2*%
X169082000Y-149850000D03*
%TO.P,J2,16,Pin_16_16*%
%TO.N,Col1*%
X169082000Y-152390000D03*
D14*
%TO.P,J2,17,Pin_17_17*%
%TO.N,unconnected-(J2-Pin_17-Pad17)*%
X171622000Y-149850000D03*
D11*
%TO.P,J2,18,Pin_18_18*%
%TO.N,Row3*%
X171622000Y-152390000D03*
%TO.P,J2,19,Pin_19_19*%
%TO.N,Col3*%
X174162000Y-149850000D03*
D14*
%TO.P,J2,20,Pin_20_20*%
%TO.N,unconnected-(J2-Pin_20-Pad20)*%
X174162000Y-152390000D03*
%TO.P,J2,21,Pin_21_21*%
%TO.N,unconnected-(J2-Pin_21-Pad21)*%
X176702000Y-149850000D03*
%TO.P,J2,22,Pin_22_22*%
%TO.N,unconnected-(J2-Pin_22-Pad22)*%
X176702000Y-152390000D03*
D11*
%TO.P,J2,23,Pin_23_23*%
%TO.N,Col4*%
X179242000Y-149850000D03*
%TO.P,J2,24,Pin_24_24*%
%TO.N,Row4*%
X179242000Y-152390000D03*
D14*
%TO.P,J2,25,Pin_25_25*%
%TO.N,unconnected-(J2-Pin_25-Pad25)*%
X181782000Y-149850000D03*
D11*
%TO.P,J2,26,Pin_26_26*%
%TO.N,Row0*%
X181782000Y-152390000D03*
D14*
%TO.P,J2,27,Pin_27_27*%
%TO.N,unconnected-(J2-Pin_27-Pad27)*%
X184322000Y-149850000D03*
%TO.P,J2,28,Pin_28_28*%
%TO.N,unconnected-(J2-Pin_28-Pad28)*%
X184322000Y-152390000D03*
D11*
%TO.P,J2,29,Pin_29_29*%
%TO.N,Col5*%
X186862000Y-149850000D03*
D14*
%TO.P,J2,30,Pin_30_30*%
%TO.N,unconnected-(J2-Pin_30-Pad30)*%
X186862000Y-152390000D03*
D11*
%TO.P,J2,31,Pin_31_31*%
%TO.N,Col6*%
X189402000Y-149850000D03*
%TO.P,J2,32,Pin_32_32*%
%TO.N,Row1*%
X189402000Y-152390000D03*
%TO.P,J2,33,Pin_33_33*%
%TO.N,Row5*%
X191942000Y-149850000D03*
D14*
%TO.P,J2,34,Pin_34_34*%
%TO.N,unconnected-(J2-Pin_34-Pad34)*%
X191942000Y-152390000D03*
%TO.P,J2,35,Pin_35_35*%
%TO.N,unconnected-(J2-Pin_35-Pad35)*%
X194482000Y-149850000D03*
D11*
%TO.P,J2,36,Pin_36_36*%
%TO.N,Row2*%
X194482000Y-152390000D03*
D14*
%TO.P,J2,37,Pin_37_37*%
%TO.N,unconnected-(J2-Pin_37-Pad37)*%
X197022000Y-149850000D03*
%TO.P,J2,38,Pin_38_38*%
%TO.N,unconnected-(J2-Pin_38-Pad38)*%
X197022000Y-152390000D03*
%TO.P,J2,39,Pin_39_39*%
%TO.N,unconnected-(J2-Pin_39-Pad39)*%
X199562000Y-149850000D03*
%TO.P,J2,40,Pin_40_40*%
%TO.N,unconnected-(J2-Pin_40-Pad40)*%
X199562000Y-152390000D03*
%TD*%
D10*
%TO.P,D13,1,K_1*%
%TO.N,Row1*%
X201970750Y-66100000D03*
D11*
%TO.P,D13,2,A_2*%
%TO.N,Net-(D13-A)*%
X194350750Y-66100000D03*
%TD*%
D10*
%TO.P,D17,1,K_1*%
%TO.N,Row2*%
X163870750Y-85150000D03*
D11*
%TO.P,D17,2,A_2*%
%TO.N,Net-(D17-A)*%
X156250750Y-85150000D03*
%TD*%
D15*
%TO.N,Row4*%
X209900000Y-132400000D03*
%TO.N,Row3*%
X211200000Y-110900000D03*
%TO.N,Col3*%
X171650000Y-146750000D03*
%TO.N,Row3*%
X174450000Y-156500000D03*
%TO.N,Row4*%
X180100000Y-156100000D03*
%TO.N,Col2*%
X140900000Y-146900000D03*
X125150000Y-103000000D03*
%TO.N,Col6*%
X190352000Y-146450000D03*
%TO.N,Col1*%
X166400000Y-155650000D03*
X123050000Y-150250000D03*
%TO.N,Col4*%
X178101000Y-146399000D03*
%TO.N,Col5*%
X185752000Y-146300000D03*
%TD*%
%TO.N,Row4*%
D16*
X180100000Y-156100000D02*
X179242000Y-155242000D01*
%TO.N,Col3*%
X171650000Y-146750000D02*
X173452000Y-146750000D01*
%TO.N,Row4*%
X186800000Y-125300000D02*
X158200000Y-125300000D01*
%TO.N,Col3*%
X173452000Y-146750000D02*
X174162000Y-147460000D01*
%TO.N,Row4*%
X206500000Y-125800000D02*
X203950000Y-123250000D01*
X127950000Y-86449000D02*
X127938000Y-86437000D01*
X156150000Y-123250000D02*
X158200000Y-125300000D01*
X184750000Y-123250000D02*
X186800000Y-125300000D01*
%TO.N,Col3*%
X174162000Y-147460000D02*
X174162000Y-149850000D01*
%TO.N,Row4*%
X127950000Y-120950000D02*
X127950000Y-86449000D01*
X158200000Y-125300000D02*
X132300000Y-125300000D01*
X182920750Y-123250000D02*
X184750000Y-123250000D01*
X132300000Y-125300000D02*
X127950000Y-120950000D01*
X179242000Y-155242000D02*
X179242000Y-152390000D01*
X154345750Y-123250000D02*
X156150000Y-123250000D01*
X203950000Y-123250000D02*
X201970750Y-123250000D01*
X206500000Y-125800000D02*
X206000000Y-125300000D01*
X209900000Y-129200000D02*
X206500000Y-125800000D01*
X209900000Y-132400000D02*
X209900000Y-129200000D01*
X206000000Y-125300000D02*
X186800000Y-125300000D01*
%TO.N,Row5*%
X183452000Y-144750000D02*
X162852000Y-144750000D01*
X191952000Y-149840000D02*
X191952000Y-148298000D01*
X198752000Y-144750000D02*
X199589500Y-143912500D01*
X122300000Y-141598000D02*
X122300000Y-84650000D01*
X191952000Y-148298000D02*
X195500000Y-144750000D01*
%TO.N,Col6*%
X189402000Y-147200000D02*
X189402000Y-149850000D01*
%TO.N,Row5*%
X179252000Y-144750000D02*
X180952000Y-144750000D01*
X141452000Y-144750000D02*
X125452000Y-144750000D01*
X183452000Y-144750000D02*
X181002000Y-142300000D01*
X199589500Y-143912500D02*
X199589500Y-142300000D01*
X161402000Y-142300000D02*
X163852000Y-144750000D01*
X183452000Y-144750000D02*
X194252000Y-144750000D01*
X178158250Y-142300000D02*
X181002000Y-142300000D01*
X194252000Y-144750000D02*
X198752000Y-144750000D01*
X122300000Y-84650000D02*
X123200000Y-83750000D01*
X159108250Y-142300000D02*
X161402000Y-142300000D01*
%TO.N,Col6*%
X190352000Y-146450000D02*
X190152000Y-146450000D01*
X190152000Y-146450000D02*
X189402000Y-147200000D01*
%TO.N,Row5*%
X125452000Y-144750000D02*
X122300000Y-141598000D01*
X139002000Y-142300000D02*
X141452000Y-144750000D01*
X123200000Y-83750000D02*
X125251000Y-83750000D01*
X163852000Y-144750000D02*
X141452000Y-144750000D01*
%TO.N,Row2*%
X132117000Y-78817000D02*
X127938000Y-78817000D01*
X166050000Y-85150000D02*
X168100000Y-87200000D01*
X132850000Y-79550000D02*
X132117000Y-78817000D01*
X149200000Y-87200000D02*
X135350000Y-87200000D01*
%TO.N,Col2*%
X168000000Y-146900000D02*
X169100000Y-148000000D01*
X169100000Y-148000000D02*
X169082000Y-148018000D01*
%TO.N,Row2*%
X194482000Y-154082000D02*
X194482000Y-152390000D01*
%TO.N,Row5*%
X191942000Y-149850000D02*
X191952000Y-149840000D01*
%TO.N,Row2*%
X213000000Y-91300000D02*
X213000000Y-144150000D01*
X144820750Y-85150000D02*
X147150000Y-85150000D01*
%TO.N,Col2*%
X169082000Y-148018000D02*
X169082000Y-149850000D01*
%TO.N,Row2*%
X163870750Y-85150000D02*
X166050000Y-85150000D01*
X202150000Y-155000000D02*
X195400000Y-155000000D01*
%TO.N,Row5*%
X125251000Y-83750000D02*
X125398000Y-83897000D01*
%TO.N,Col2*%
X125150000Y-103000000D02*
X125398000Y-102752000D01*
%TO.N,Row2*%
X208900000Y-87200000D02*
X213000000Y-91300000D01*
X147150000Y-85150000D02*
X149200000Y-87200000D01*
X205150000Y-85150000D02*
X207200000Y-87200000D01*
%TO.N,Col2*%
X125398000Y-102752000D02*
X125398000Y-86437000D01*
%TO.N,Row2*%
X135350000Y-87200000D02*
X132850000Y-84700000D01*
%TO.N,Col2*%
X140900000Y-146900000D02*
X168000000Y-146900000D01*
%TO.N,Row2*%
X185850000Y-85150000D02*
X187900000Y-87200000D01*
%TO.N,Row5*%
X141452000Y-144750000D02*
X144752000Y-144750000D01*
X137677000Y-142300000D02*
X139002000Y-142300000D01*
%TO.N,Row1*%
X163870750Y-66100000D02*
X166300000Y-66100000D01*
%TO.N,Row3*%
X130900000Y-103500000D02*
X130900000Y-81900000D01*
%TO.N,Row1*%
X168400000Y-68200000D02*
X149200000Y-68200000D01*
%TO.N,Row2*%
X168100000Y-87200000D02*
X187900000Y-87200000D01*
%TO.N,Row1*%
X127938000Y-71812000D02*
X127938000Y-76277000D01*
%TO.N,Row2*%
X182920750Y-85150000D02*
X185850000Y-85150000D01*
%TO.N,Row3*%
X211200000Y-110900000D02*
X206700000Y-106400000D01*
X185000000Y-104200000D02*
X187200000Y-106400000D01*
X146400000Y-104200000D02*
X148600000Y-106400000D01*
%TO.N,Row2*%
X149200000Y-87200000D02*
X168100000Y-87200000D01*
%TO.N,Row3*%
X187200000Y-106400000D02*
X168900000Y-106400000D01*
X174450000Y-156500000D02*
X172400000Y-156500000D01*
X206700000Y-106400000D02*
X204500000Y-104200000D01*
X172400000Y-156500000D02*
X171622000Y-155722000D01*
X133800000Y-106400000D02*
X130900000Y-103500000D01*
X182920750Y-104200000D02*
X185000000Y-104200000D01*
%TO.N,Row1*%
X206400000Y-68200000D02*
X187000000Y-68200000D01*
%TO.N,Row2*%
X132850000Y-84700000D02*
X132850000Y-79550000D01*
X207200000Y-87200000D02*
X208900000Y-87200000D01*
%TO.N,Row3*%
X168900000Y-106400000D02*
X148600000Y-106400000D01*
X130357000Y-81357000D02*
X127938000Y-81357000D01*
%TO.N,Row2*%
X187900000Y-87200000D02*
X207200000Y-87200000D01*
%TO.N,Row3*%
X204500000Y-104200000D02*
X201970750Y-104200000D01*
%TO.N,Row2*%
X213000000Y-144150000D02*
X202150000Y-155000000D01*
X201970750Y-85150000D02*
X205150000Y-85150000D01*
X195400000Y-155000000D02*
X194482000Y-154082000D01*
%TO.N,Row3*%
X171622000Y-155722000D02*
X171622000Y-152390000D01*
X144820750Y-104200000D02*
X146400000Y-104200000D01*
X163870750Y-104200000D02*
X166700000Y-104200000D01*
X130900000Y-81900000D02*
X130357000Y-81357000D01*
X166700000Y-104200000D02*
X168900000Y-106400000D01*
X206700000Y-106400000D02*
X187200000Y-106400000D01*
X148600000Y-106400000D02*
X133800000Y-106400000D01*
%TO.N,Col0*%
X118900000Y-79800000D02*
X119883000Y-78817000D01*
X164002000Y-152390000D02*
X164002000Y-154448000D01*
%TO.N,Row1*%
X204300000Y-66100000D02*
X206400000Y-68200000D01*
X209950000Y-68200000D02*
X206400000Y-68200000D01*
%TO.N,Col0*%
X124952000Y-155650000D02*
X118900000Y-149598000D01*
%TO.N,Row1*%
X182920750Y-66100000D02*
X184900000Y-66100000D01*
%TO.N,Col0*%
X164002000Y-154448000D02*
X162800000Y-155650000D01*
%TO.N,Row1*%
X149200000Y-68200000D02*
X131550000Y-68200000D01*
X203550000Y-156400000D02*
X214700000Y-145250000D01*
X214700000Y-145250000D02*
X214700000Y-72950000D01*
%TO.N,Col0*%
X118900000Y-149598000D02*
X118900000Y-79800000D01*
%TO.N,Row1*%
X131550000Y-68200000D02*
X127938000Y-71812000D01*
X201970750Y-66100000D02*
X204300000Y-66100000D01*
X189402000Y-152390000D02*
X189402000Y-154798000D01*
X184900000Y-66100000D02*
X187000000Y-68200000D01*
X214700000Y-72950000D02*
X209950000Y-68200000D01*
X147100000Y-66100000D02*
X149200000Y-68200000D01*
X189402000Y-154798000D02*
X189400000Y-154800000D01*
X191000000Y-156400000D02*
X203550000Y-156400000D01*
X187000000Y-68200000D02*
X168400000Y-68200000D01*
X189400000Y-154800000D02*
X191000000Y-156400000D01*
X144820750Y-66100000D02*
X147100000Y-66100000D01*
X166300000Y-66100000D02*
X168400000Y-68200000D01*
%TO.N,Col0*%
X162800000Y-155650000D02*
X124952000Y-155650000D01*
%TO.N,Row0*%
X216500000Y-145900000D02*
X204700000Y-157700000D01*
%TO.N,Col5*%
X185752000Y-146850000D02*
X186862000Y-147960000D01*
X185752000Y-146300000D02*
X185752000Y-146850000D01*
%TO.N,Col4*%
X178101000Y-146399000D02*
X179242000Y-147540000D01*
%TO.N,Row0*%
X182920750Y-47050000D02*
X185050000Y-47050000D01*
X187300000Y-49300000D02*
X168200000Y-49300000D01*
%TO.N,Col5*%
X186862000Y-147960000D02*
X186862000Y-149850000D01*
%TO.N,Col4*%
X179242000Y-147540000D02*
X179242000Y-149850000D01*
%TO.N,Row0*%
X204700000Y-157700000D02*
X185550000Y-157700000D01*
X147050000Y-47050000D02*
X149300000Y-49300000D01*
X206300000Y-49300000D02*
X209900000Y-49300000D01*
X185550000Y-157700000D02*
X181782000Y-153932000D01*
X181782000Y-153932000D02*
X181782000Y-152390000D01*
X168200000Y-49300000D02*
X149300000Y-49300000D01*
X216500000Y-55900000D02*
X216500000Y-145900000D01*
X163870750Y-47050000D02*
X165950000Y-47050000D01*
X204050000Y-47050000D02*
X206300000Y-49300000D01*
X149300000Y-49300000D02*
X131200000Y-49300000D01*
X185050000Y-47050000D02*
X187300000Y-49300000D01*
X209900000Y-49300000D02*
X216500000Y-55900000D01*
X144820750Y-47050000D02*
X147050000Y-47050000D01*
X201970750Y-47050000D02*
X204050000Y-47050000D01*
X125398000Y-55102000D02*
X125398000Y-76277000D01*
X206300000Y-49300000D02*
X187300000Y-49300000D01*
X165950000Y-47050000D02*
X168200000Y-49300000D01*
X131200000Y-49300000D02*
X125398000Y-55102000D01*
%TO.N,Col1*%
X166400000Y-155650000D02*
X167750000Y-155650000D01*
X120650000Y-147850000D02*
X120650000Y-82850000D01*
X120650000Y-82850000D02*
X122250000Y-81250000D01*
X122250000Y-81250000D02*
X125291000Y-81250000D01*
X167750000Y-155650000D02*
X169082000Y-154318000D01*
X123050000Y-150250000D02*
X120650000Y-147850000D01*
X169082000Y-154318000D02*
X169082000Y-152390000D01*
X125291000Y-81250000D02*
X125398000Y-81357000D01*
%TO.N,Col0*%
X119883000Y-78817000D02*
X125398000Y-78817000D01*
%TD*%
%TA.AperFunction,Conductor*%
%TO.N,Row4*%
G36*
X210398636Y-130807279D02*
G01*
X210401846Y-130813311D01*
X210693687Y-132308977D01*
X210691908Y-132317754D01*
X210684445Y-132322701D01*
X210683365Y-132322860D01*
X209901161Y-132400884D01*
X209898839Y-132400884D01*
X209116634Y-132322860D01*
X209108742Y-132318629D01*
X209106153Y-132310057D01*
X209106312Y-132308977D01*
X209398154Y-130813311D01*
X209403101Y-130805848D01*
X209409637Y-130803852D01*
X210390363Y-130803852D01*
X210398636Y-130807279D01*
G37*
%TD.AperFunction*%
%TD*%
M02*
