M48
; DRILL file KiCad 10.0.0 date 2026-05-11T13:43:57
; FORMAT={-:-/ absolute / metric / decimal}
; #@! TF.CreationDate,2026-05-11T13:43:57-03:00
; #@! TF.GenerationSoftware,Kicad,Pcbnew,10.0.0
; #@! TF.FileFunction,Plated,1,2,PTH
FMAT,2
METRIC
; #@! TA.AperFunction,Plated,PTH,ViaDrill
T1C0.600
; #@! TA.AperFunction,Plated,PTH,ComponentDrill
T2C0.800
%
G90
G05
T1
X91.95Y-92.2
X94.55Y-55.45
X98.85Y-76.05
T2
X30.599Y-123.3
X32.98Y-47.1
X32.98Y-66.15
X32.98Y-85.2
X37.742Y-104.25
X37.742Y-142.35
X38.219Y-123.3
X40.6Y-47.1
X40.6Y-66.15
X40.6Y-85.2
X45.362Y-104.25
X45.362Y-142.35
X52.03Y-123.3
X56.792Y-47.1
X56.792Y-66.15
X56.792Y-85.2
X59.65Y-123.3
X63.936Y-104.25
X64.412Y-47.1
X64.412Y-66.15
X64.412Y-85.2
X66.317Y-142.35
X71.556Y-104.25
X73.461Y-123.3
X73.938Y-142.35
X78.224Y-47.1
X81.081Y-123.3
X85.775Y-76.6
X85.775Y-78.6
X85.775Y-80.6
X85.775Y-82.6
X85.775Y-84.6
X85.844Y-47.1
X87.749Y-142.35
X87.775Y-76.6
X87.775Y-78.6
X87.775Y-80.6
X87.775Y-82.6
X87.775Y-84.6
X95.369Y-142.35
M30
