%TF.GenerationSoftware,KiCad,Pcbnew,10.0.0*%
%TF.CreationDate,2026-05-11T13:43:59-03:00*%
%TF.ProjectId,tcc-16-04-2026-1322,7463632d-3136-42d3-9034-2d323032362d,rev?*%
%TF.SameCoordinates,Original*%
%TF.FileFunction,Copper,L2,Bot*%
%TF.FilePolarity,Positive*%
%FSLAX46Y46*%
G04 Gerber Fmt 4.6, Leading zero omitted, Abs format (unit mm)*
G04 Created by KiCad (PCBNEW 10.0.0) date 2026-05-11 13:43:59*
%MOMM*%
%LPD*%
G01*
G04 APERTURE LIST*
G04 Aperture macros list*
%AMRoundRect*
0 Rectangle with rounded corners*
0 $1 Rounding radius*
0 $2 $3 $4 $5 $6 $7 $8 $9 X,Y pos of 4 corners*
0 Add a 4 corners polygon primitive as box body*
4,1,4,$2,$3,$4,$5,$6,$7,$8,$9,$2,$3,0*
0 Add four circle primitives for the rounded corners*
1,1,$1+$1,$2,$3*
1,1,$1+$1,$4,$5*
1,1,$1+$1,$6,$7*
1,1,$1+$1,$8,$9*
0 Add four rect primitives between the rounded corners*
20,1,$1+$1,$2,$3,$4,$5,0*
20,1,$1+$1,$4,$5,$6,$7,0*
20,1,$1+$1,$6,$7,$8,$9,0*
20,1,$1+$1,$8,$9,$2,$3,0*%
G04 Aperture macros list end*
%TA.AperFunction,SMDPad,CuDef*%
%ADD10R,2.550000X2.500000*%
%TD*%
%TA.AperFunction,ComponentPad*%
%ADD11RoundRect,0.250000X0.550000X0.550000X-0.550000X0.550000X-0.550000X-0.550000X0.550000X-0.550000X0*%
%TD*%
%TA.AperFunction,ComponentPad*%
%ADD12C,1.600000*%
%TD*%
%TA.AperFunction,ComponentPad*%
%ADD13R,1.600000X1.350000*%
%TD*%
%TA.AperFunction,ViaPad*%
%ADD14C,1.600000*%
%TD*%
%TA.AperFunction,Conductor*%
%ADD15C,1.000000*%
%TD*%
%TA.AperFunction,Conductor*%
%ADD16C,0.600000*%
%TD*%
G04 APERTURE END LIST*
D10*
%TO.P,SW2,1,1_1*%
%TO.N,Net-(D2-A)*%
X54352500Y-35560000D03*
%TO.P,SW2,2,2_2*%
%TO.N,Col1*%
X68202500Y-33020000D03*
%TD*%
%TO.P,SW15,1,1_1*%
%TO.N,Net-(D15-A)*%
X54352500Y-73660000D03*
%TO.P,SW15,2,2_2*%
%TO.N,Col1*%
X68202500Y-71120000D03*
%TD*%
D11*
%TO.P,D1,1,K_1*%
%TO.N,Row0*%
X40600000Y-47100000D03*
D12*
%TO.P,D1,2,A_2*%
%TO.N,Net-(D1-A)*%
X32980000Y-47100000D03*
%TD*%
D10*
%TO.P,SW14,1,1_1*%
%TO.N,Net-(D14-A)*%
X30540000Y-73660000D03*
%TO.P,SW14,2,2_2*%
%TO.N,Col0*%
X44390000Y-71120000D03*
%TD*%
D11*
%TO.P,D8,1,K_1*%
%TO.N,Row1*%
X40600000Y-66150000D03*
D12*
%TO.P,D8,2,A_2*%
%TO.N,Net-(D8-A)*%
X32980000Y-66150000D03*
%TD*%
D10*
%TO.P,SW20,1,1_1*%
%TO.N,Net-(D20-A)*%
X35302500Y-92710000D03*
%TO.P,SW20,2,2_2*%
%TO.N,Col0*%
X49152500Y-90170000D03*
%TD*%
D11*
%TO.P,D2,1,K_1*%
%TO.N,Row0*%
X64412500Y-47100000D03*
D12*
%TO.P,D2,2,A_2*%
%TO.N,Net-(D2-A)*%
X56792500Y-47100000D03*
%TD*%
D11*
%TO.P,D21,1,K_1*%
%TO.N,Row3*%
X71556250Y-104250000D03*
D12*
%TO.P,D21,2,A_2*%
%TO.N,Net-(D21-A)*%
X63936250Y-104250000D03*
%TD*%
D11*
%TO.P,D15,1,K_1*%
%TO.N,Row2*%
X64412500Y-85200000D03*
D12*
%TO.P,D15,2,A_2*%
%TO.N,Net-(D15-A)*%
X56792500Y-85200000D03*
%TD*%
D10*
%TO.P,SW34,1,1_1*%
%TO.N,Net-(D34-A)*%
X85308750Y-130810000D03*
%TO.P,SW34,2,2_2*%
%TO.N,Col2*%
X99158750Y-128270000D03*
%TD*%
%TO.P,SW9,1,1_1*%
%TO.N,Net-(D9-A)*%
X54352500Y-54610000D03*
%TO.P,SW9,2,2_2*%
%TO.N,Col1*%
X68202500Y-52070000D03*
%TD*%
D11*
%TO.P,D32,1,K_1*%
%TO.N,Row5*%
X45362500Y-142350000D03*
D12*
%TO.P,D32,2,A_2*%
%TO.N,Net-(D32-A)*%
X37742500Y-142350000D03*
%TD*%
D11*
%TO.P,D33,1,K_1*%
%TO.N,Row5*%
X73937500Y-142350000D03*
D12*
%TO.P,D33,2,A_2*%
%TO.N,Net-(D33-A)*%
X66317500Y-142350000D03*
%TD*%
D11*
%TO.P,D26,1,K_1*%
%TO.N,Row4*%
X38218750Y-123300000D03*
D12*
%TO.P,D26,2,A_2*%
%TO.N,Net-(D26-A)*%
X30598750Y-123300000D03*
%TD*%
D10*
%TO.P,SW21,1,1_1*%
%TO.N,Net-(D21-A)*%
X61496250Y-92710000D03*
%TO.P,SW21,2,2_2*%
%TO.N,Col1*%
X75346250Y-90170000D03*
%TD*%
%TO.P,SW33,1,1_1*%
%TO.N,Net-(D33-A)*%
X63877500Y-130810000D03*
%TO.P,SW33,2,2_2*%
%TO.N,Col1*%
X77727500Y-128270000D03*
%TD*%
D11*
%TO.P,D27,1,K_1*%
%TO.N,Row4*%
X59650000Y-123300000D03*
D12*
%TO.P,D27,2,A_2*%
%TO.N,Net-(D27-A)*%
X52030000Y-123300000D03*
%TD*%
D11*
%TO.P,D3,1,K_1*%
%TO.N,Row0*%
X85843750Y-47100000D03*
D12*
%TO.P,D3,2,A_2*%
%TO.N,Net-(D3-A)*%
X78223750Y-47100000D03*
%TD*%
D11*
%TO.P,D9,1,K_1*%
%TO.N,Row1*%
X64412500Y-66150000D03*
D12*
%TO.P,D9,2,A_2*%
%TO.N,Net-(D9-A)*%
X56792500Y-66150000D03*
%TD*%
D11*
%TO.P,D14,1,K_1*%
%TO.N,Row2*%
X40600000Y-85200000D03*
D12*
%TO.P,D14,2,A_2*%
%TO.N,Net-(D14-A)*%
X32980000Y-85200000D03*
%TD*%
D13*
%TO.P,J3,1,Pin_1_1*%
%TO.N,Row1*%
X85775000Y-76600000D03*
D12*
%TO.P,J3,2,Pin_2_2*%
%TO.N,Row0*%
X87775000Y-76600000D03*
%TO.P,J3,3,Pin_3_3*%
%TO.N,Row2*%
X85775000Y-78600000D03*
%TO.P,J3,4,Pin_4_4*%
%TO.N,Col0*%
X87775000Y-78600000D03*
%TO.P,J3,5,Pin_5_5*%
%TO.N,Row3*%
X85775000Y-80600000D03*
%TO.P,J3,6,Pin_6_6*%
%TO.N,Col1*%
X87775000Y-80600000D03*
%TO.P,J3,7,Pin_7_7*%
%TO.N,unconnected-(J3-Pin_7-Pad7)*%
X85775000Y-82600000D03*
%TO.P,J3,8,Pin_8_8*%
%TO.N,Row5*%
X87775000Y-82600000D03*
%TO.P,J3,9,Pin_9_9*%
%TO.N,Row4*%
X85775000Y-84600000D03*
%TO.P,J3,10,Pin_10_10*%
%TO.N,Col2*%
X87775000Y-84600000D03*
%TD*%
D10*
%TO.P,SW26,1,1_1*%
%TO.N,Net-(D26-A)*%
X28158750Y-111760000D03*
%TO.P,SW26,2,2_2*%
%TO.N,Col0*%
X42008750Y-109220000D03*
%TD*%
%TO.P,SW28,1,1_1*%
%TO.N,Net-(D28-A)*%
X71021250Y-111760000D03*
%TO.P,SW28,2,2_2*%
%TO.N,Col2*%
X84871250Y-109220000D03*
%TD*%
%TO.P,SW27,1,1_1*%
%TO.N,Net-(D27-A)*%
X49590000Y-111760000D03*
%TO.P,SW27,2,2_2*%
%TO.N,Col1*%
X63440000Y-109220000D03*
%TD*%
%TO.P,SW1,1,1_1*%
%TO.N,Net-(D1-A)*%
X30540000Y-35560000D03*
%TO.P,SW1,2,2_2*%
%TO.N,Col0*%
X44390000Y-33020000D03*
%TD*%
D11*
%TO.P,D20,1,K_1*%
%TO.N,Row3*%
X45362500Y-104250000D03*
D12*
%TO.P,D20,2,A_2*%
%TO.N,Net-(D20-A)*%
X37742500Y-104250000D03*
%TD*%
D11*
%TO.P,D28,1,K_1*%
%TO.N,Row4*%
X81081250Y-123300000D03*
D12*
%TO.P,D28,2,A_2*%
%TO.N,Net-(D28-A)*%
X73461250Y-123300000D03*
%TD*%
D11*
%TO.P,D34,1,K_1*%
%TO.N,Row5*%
X95368750Y-142350000D03*
D12*
%TO.P,D34,2,A_2*%
%TO.N,Net-(D34-A)*%
X87748750Y-142350000D03*
%TD*%
D10*
%TO.P,SW3,1,1_1*%
%TO.N,Net-(D3-A)*%
X75783750Y-35560000D03*
%TO.P,SW3,2,2_2*%
%TO.N,Col2*%
X89633750Y-33020000D03*
%TD*%
%TO.P,SW32,1,1_1*%
%TO.N,Net-(D32-A)*%
X35302500Y-130810000D03*
%TO.P,SW32,2,2_2*%
%TO.N,Col0*%
X49152500Y-128270000D03*
%TD*%
%TO.P,SW8,1,1_1*%
%TO.N,Net-(D8-A)*%
X30540000Y-54610000D03*
%TO.P,SW8,2,2_2*%
%TO.N,Col0*%
X44390000Y-52070000D03*
%TD*%
D14*
%TO.N,Col2*%
X91950000Y-92200000D03*
%TO.N,Col1*%
X98850000Y-76050000D03*
%TO.N,Col0*%
X94550000Y-55450000D03*
%TD*%
%TO.N,Col0*%
D15*
X51600000Y-49100000D02*
X48500000Y-46000000D01*
X94550000Y-55450000D02*
X93750000Y-54650000D01*
X93750000Y-54650000D02*
X77200000Y-54650000D01*
X77200000Y-54650000D02*
X71650000Y-49100000D01*
X71650000Y-49100000D02*
X51600000Y-49100000D01*
X49152500Y-125752500D02*
X49152500Y-128270000D01*
X45100000Y-121700000D02*
X49152500Y-125752500D01*
X45100000Y-115900000D02*
X45100000Y-121700000D01*
%TO.N,*%
D16*
X69202500Y-38597500D02*
X69202500Y-38800000D01*
X69350000Y-38450000D02*
X69202500Y-38597500D01*
X70700000Y-38450000D02*
X69350000Y-38450000D01*
%TO.N,Col1*%
D15*
X68202500Y-42752500D02*
X68202500Y-33020000D01*
X82550000Y-49200000D02*
X80950000Y-50800000D01*
X76250000Y-50800000D02*
X68202500Y-42752500D01*
X82550000Y-46100000D02*
X82550000Y-49200000D01*
X80950000Y-50800000D02*
X76250000Y-50800000D01*
X84350000Y-44300000D02*
X82550000Y-46100000D01*
X89900000Y-44300000D02*
X84350000Y-44300000D01*
X98800000Y-53200000D02*
X89900000Y-44300000D01*
X98800000Y-66700000D02*
X98800000Y-53200000D01*
X90000000Y-57900000D02*
X78450000Y-57900000D01*
X98800000Y-76000000D02*
X98800000Y-66700000D01*
X98850000Y-76050000D02*
X98800000Y-76000000D01*
X72300000Y-64050000D02*
X72300000Y-78400000D01*
X98800000Y-66700000D02*
X90000000Y-57900000D01*
X78450000Y-57900000D02*
X72300000Y-64050000D01*
X68202500Y-55652500D02*
X68202500Y-52070000D01*
X72300000Y-59750000D02*
X68202500Y-55652500D01*
X72300000Y-59750000D02*
X72300000Y-64050000D01*
%TO.N,Col2*%
X97700000Y-97950000D02*
X91950000Y-92200000D01*
X97700000Y-102850000D02*
X97700000Y-97950000D01*
X93220000Y-33020000D02*
X101850000Y-41650000D01*
X89633750Y-33020000D02*
X93220000Y-33020000D01*
X97700000Y-102850000D02*
X97700000Y-105500000D01*
X101850000Y-41650000D02*
X101850000Y-98700000D01*
X101850000Y-98700000D02*
X97700000Y-102850000D01*
%TO.N,Net-(D2-A)*%
X54300000Y-35612500D02*
X54352500Y-35560000D01*
X56792500Y-47100000D02*
X54300000Y-44607500D01*
X54300000Y-44607500D02*
X54300000Y-35612500D01*
%TO.N,Col1*%
X68202500Y-74302500D02*
X72300000Y-78400000D01*
X72300000Y-81300000D02*
X79800000Y-88800000D01*
X79800000Y-103600000D02*
X76700000Y-106700000D01*
X76700000Y-106700000D02*
X68600000Y-106700000D01*
X68202500Y-71120000D02*
X68202500Y-74302500D01*
X67400000Y-123800000D02*
X68800000Y-125200000D01*
X79800000Y-88800000D02*
X79800000Y-97800000D01*
X77727500Y-126127500D02*
X77727500Y-128270000D01*
X67400000Y-115000000D02*
X67400000Y-123800000D01*
X72300000Y-78400000D02*
X72300000Y-81300000D01*
X79800000Y-97800000D02*
X79800000Y-103600000D01*
X76800000Y-125200000D02*
X77727500Y-126127500D01*
X68600000Y-106700000D02*
X67400000Y-107900000D01*
X67400000Y-107900000D02*
X67400000Y-115000000D01*
X75346250Y-90170000D02*
X75346250Y-93346250D01*
X66200000Y-115000000D02*
X67400000Y-115000000D01*
X75346250Y-93346250D02*
X79800000Y-97800000D01*
X63440000Y-112240000D02*
X66200000Y-115000000D01*
X68800000Y-125200000D02*
X76800000Y-125200000D01*
X63440000Y-109220000D02*
X63440000Y-112240000D01*
%TO.N,Net-(D15-A)*%
X56792500Y-85200000D02*
X54400000Y-82807500D01*
X54400000Y-82807500D02*
X54400000Y-73707500D01*
X54400000Y-73707500D02*
X54352500Y-73660000D01*
%TO.N,Net-(D1-A)*%
X32980000Y-47100000D02*
X30600000Y-44720000D01*
X30600000Y-44720000D02*
X30600000Y-35620000D01*
X30600000Y-35620000D02*
X30540000Y-35560000D01*
%TO.N,Net-(D14-A)*%
X30600000Y-82820000D02*
X30600000Y-73720000D01*
X32980000Y-85200000D02*
X30600000Y-82820000D01*
X30600000Y-73720000D02*
X30540000Y-73660000D01*
%TO.N,Col0*%
X42008750Y-109220000D02*
X42008750Y-112808750D01*
X46000000Y-106400000D02*
X45100000Y-107300000D01*
X48400000Y-58900000D02*
X48500000Y-58900000D01*
X48500000Y-46000000D02*
X48500000Y-58900000D01*
X53000000Y-88600000D02*
X53000000Y-96500000D01*
X44390000Y-54890000D02*
X48400000Y-58900000D01*
X42008750Y-112808750D02*
X45100000Y-115900000D01*
X44390000Y-73690000D02*
X48500000Y-77800000D01*
X49152500Y-90170000D02*
X49152500Y-92652500D01*
X48500000Y-77800000D02*
X48500000Y-84100000D01*
X44390000Y-52070000D02*
X44390000Y-54890000D01*
X49800000Y-106400000D02*
X46000000Y-106400000D01*
X48500000Y-58900000D02*
X48500000Y-77800000D01*
X48500000Y-84100000D02*
X53000000Y-88600000D01*
X49152500Y-92652500D02*
X53000000Y-96500000D01*
X53000000Y-96500000D02*
X53000000Y-103200000D01*
X53000000Y-103200000D02*
X49800000Y-106400000D01*
X44390000Y-71120000D02*
X44390000Y-73690000D01*
X45100000Y-107300000D02*
X45100000Y-115900000D01*
%TO.N,Net-(D8-A)*%
X30500000Y-63670000D02*
X30500000Y-54650000D01*
X32980000Y-66150000D02*
X30500000Y-63670000D01*
X30500000Y-54650000D02*
X30540000Y-54610000D01*
%TO.N,Net-(D20-A)*%
X35300000Y-101807500D02*
X35300000Y-92712500D01*
X37742500Y-104250000D02*
X35300000Y-101807500D01*
X35300000Y-92712500D02*
X35302500Y-92710000D01*
%TO.N,Net-(D21-A)*%
X61400000Y-92806250D02*
X61496250Y-92710000D01*
X61400000Y-101713750D02*
X61400000Y-92806250D01*
X63936250Y-104250000D02*
X61400000Y-101713750D01*
%TO.N,Net-(D34-A)*%
X85300000Y-139901250D02*
X85300000Y-130818750D01*
X85300000Y-130818750D02*
X85308750Y-130810000D01*
X87748750Y-142350000D02*
X85300000Y-139901250D01*
%TO.N,Col2*%
X97700000Y-105500000D02*
X97700000Y-120200000D01*
X93980000Y-109220000D02*
X84871250Y-109220000D01*
X97700000Y-120200000D02*
X99158750Y-121658750D01*
X99158750Y-121658750D02*
X99158750Y-128270000D01*
X97700000Y-105500000D02*
X93980000Y-109220000D01*
%TO.N,Net-(D9-A)*%
X52950000Y-56012500D02*
X54352500Y-54610000D01*
X52950000Y-64950000D02*
X52950000Y-56012500D01*
X56792500Y-66150000D02*
X54150000Y-66150000D01*
X54150000Y-66150000D02*
X52950000Y-64950000D01*
%TO.N,Net-(D32-A)*%
X35200000Y-130912500D02*
X35302500Y-130810000D01*
X37742500Y-142350000D02*
X35200000Y-139807500D01*
X35200000Y-139807500D02*
X35200000Y-130912500D01*
%TO.N,Net-(D33-A)*%
X63900000Y-139932500D02*
X63900000Y-130832500D01*
X63900000Y-130832500D02*
X63877500Y-130810000D01*
X66317500Y-142350000D02*
X63900000Y-139932500D01*
%TO.N,Net-(D26-A)*%
X28200000Y-111801250D02*
X28158750Y-111760000D01*
X30598750Y-123300000D02*
X28200000Y-120901250D01*
X28200000Y-120901250D02*
X28200000Y-111801250D01*
%TO.N,Net-(D27-A)*%
X49600000Y-111770000D02*
X49590000Y-111760000D01*
X52030000Y-123300000D02*
X49600000Y-120870000D01*
X49600000Y-120870000D02*
X49600000Y-111770000D01*
%TO.N,Net-(D3-A)*%
X75800000Y-44676250D02*
X75800000Y-35576250D01*
X75800000Y-35576250D02*
X75783750Y-35560000D01*
X78223750Y-47100000D02*
X75800000Y-44676250D01*
%TO.N,Net-(D28-A)*%
X71100000Y-120938750D02*
X71100000Y-111838750D01*
X73461250Y-123300000D02*
X71100000Y-120938750D01*
X71100000Y-111838750D02*
X71021250Y-111760000D01*
%TO.N,Col0*%
X44650000Y-33280000D02*
X44390000Y-33020000D01*
X44650000Y-40250000D02*
X44650000Y-33280000D01*
X48500000Y-46000000D02*
X48500000Y-44100000D01*
X48500000Y-44100000D02*
X44650000Y-40250000D01*
%TD*%
M02*
