M48
; DRILL file KiCad 10.0.0 date 2026-05-12T00:51:57
; FORMAT={-:-/ absolute / metric / decimal}
; #@! TF.CreationDate,2026-05-12T00:51:57-03:00
; #@! TF.GenerationSoftware,Kicad,Pcbnew,10.0.0
; #@! TF.FileFunction,NonPlated,1,2,NPTH
FMAT,2
METRIC
; #@! TA.AperFunction,NonPlated,NPTH,ComponentDrill
T1C3.000
; #@! TA.AperFunction,NonPlated,NPTH,ComponentDrill
T2C3.988
%
G90
G05
T1
X31.909Y-111.76
X34.29Y-35.56
X34.29Y-54.61
X34.29Y-73.66
X38.259Y-109.22
X39.052Y-92.71
X39.052Y-130.81
X40.64Y-33.02
X40.64Y-52.07
X40.64Y-71.12
X45.402Y-90.17
X45.402Y-128.27
X53.34Y-111.76
X58.102Y-35.56
X58.102Y-54.61
X58.102Y-73.66
X59.69Y-109.22
X64.453Y-33.02
X64.453Y-52.07
X64.453Y-71.12
X65.246Y-92.71
X67.627Y-130.81
X71.596Y-90.17
X73.977Y-128.27
X74.771Y-111.76
X79.534Y-35.56
X81.121Y-109.22
X85.884Y-33.02
X89.059Y-130.81
X95.409Y-128.27
T2
X35.719Y-114.3
X38.1Y-38.1
X38.1Y-57.15
X38.1Y-76.2
X42.862Y-95.25
X42.862Y-133.35
X57.15Y-114.3
X61.912Y-38.1
X61.912Y-57.15
X61.912Y-76.2
X69.056Y-95.25
X71.438Y-133.35
X78.581Y-114.3
X83.344Y-38.1
X92.869Y-133.35
M30
